<?xml version="1.0" encoding="UTF-8"?>
<svg id="Layer_1" xmlns="http://www.w3.org/2000/svg" version="1.1" viewBox="0 0 508 156">
  <!-- Generator: Adobe Illustrator 29.5.1, SVG Export Plug-In . SVG Version: 2.1.0 Build 141)  -->
  <path d="M105.02881,1.16602l-61.21387,151.45166H.64844L61.8623,1.16602h43.1665Z"/>
  <path d="M231.88916,1.16602v151.45166h-40v-2.63867c-7.66992,3.0957-15.65625,4.64404-23.95801,4.64404-17.66162,0-32.75391-6.26172-45.27686-18.78662-12.5249-12.52295-18.78662-27.61523-18.78662-45.27686,0-17.66016,6.26172-32.71777,18.78662-45.17139,12.52295-12.52344,27.61523-18.78662,45.27686-18.78662,8.30176,0,16.28809,1.54834,23.95801,4.64404V1.16602h40ZM167.93115,114.62305c6.61279,0,12.24268-2.35693,16.88672-7.07129,4.71289-4.71338,7.07129-10.37793,7.07129-16.99219,0-6.61279-2.3584-12.24268-7.07129-16.88672-4.64404-4.71289-10.27393-7.07129-16.88672-7.07129-6.61426,0-12.27881,2.3584-16.99219,7.07129-4.71436,4.64404-7.0708,10.27393-7.0708,16.88672,0,6.61426,2.35645,12.27881,7.0708,16.99219,4.71338,4.71436,10.37793,7.07129,16.99219,7.07129Z"/>
  <path d="M265.55713,136.04785c-12.5249-12.52344-18.78662-27.61572-18.78662-45.27734,0-17.65967,6.26172-32.71777,18.78662-45.17139,12.52295-12.52344,27.61523-18.78662,45.27686-18.78662,17.66016,0,32.71777,6.26318,45.17188,18.78662,12.52295,12.45361,18.78613,27.51172,18.78613,45.17139,0,17.66162-6.26318,32.75391-18.78613,45.27734-12.4541,12.52441-27.51172,18.78613-45.17188,18.78613-17.66162,0-32.75391-6.26172-45.27686-18.78613ZM293.8418,73.88428c-4.71436,4.64355-7.0708,10.27344-7.0708,16.88623,0,6.61475,2.35645,12.2793,7.0708,16.99219,4.71338,4.71484,10.37793,7.07129,16.99219,7.07129,6.61279,0,12.24268-2.35645,16.88672-7.07129,4.71289-4.71289,7.07129-10.37744,7.07129-16.99219,0-6.61279-2.3584-12.24268-7.07129-16.88623-4.64404-4.71338-10.27393-7.07129-16.88672-7.07129-6.61426,0-12.27881,2.35791-16.99219,7.07129Z"/>
  <path d="M447.50977,28.0791v27.86279h-17.83643v60.26416c0,2.95508,1.08984,5.48828,3.27148,7.59912,2.11084,2.11084,4.64404,3.16602,7.59912,3.16602h6.96582v27.86279h-10.34326c-13.08691,0-24.27441-4.64355-33.56201-13.93115s-13.93164-20.4751-13.93164-33.5625V1.37744h40.00049v26.70166h17.83643Z"/>
  <path d="M461.12451,131.7207c0-6.40186,2.25098-11.85547,6.75439-16.35889,4.50195-4.50195,9.95557-6.75488,16.35889-6.75488,6.40186,0,11.85547,2.25293,16.35889,6.75488,4.50195,4.50342,6.75488,9.95703,6.75488,16.35889,0,6.40332-2.25293,11.85693-6.75488,16.35889-4.50342,4.50342-9.95703,6.75439-16.35889,6.75439-6.40332,0-11.85693-2.25098-16.35889-6.75439-4.50342-4.50195-6.75439-9.95557-6.75439-16.35889Z"/>
</svg>