<?xml version="1.0" encoding="UTF-8"?>
<svg id="Layer_1" xmlns="http://www.w3.org/2000/svg" version="1.1" viewBox="0 0 966 150">
  <!-- Generator: Adobe Illustrator 29.5.1, SVG Export Plug-In . SVG Version: 2.1.0 Build 141)  -->
  <defs>
    <style>
      .st0 {
        fill: #1d1d1b;
      }

      .st1 {
        fill: #fff;
      }
    </style>
  </defs>
  <g>
    <path class="st1" d="M73.66943,146.42383c-19.56152,0-36.52832-7.04785-50.42773-20.94727S2.29443,94.61035,2.29443,75.04883c0-19.62646,7.04785-36.62598,20.94727-50.52539S54.10791,3.57617,73.66943,3.57617c17.77539,0,33.56104,5.9502,46.92676,17.68652l-25.58398,25.58398c-6.29248-4.75195-13.4707-7.16113-21.34277-7.16113-9.66309,0-18.06152,3.49902-24.96289,10.40039-6.90088,6.83643-10.40039,15.23584-10.40039,24.96289,0,9.66309,3.49902,18.06152,10.40039,24.96289s15.2998,10.40039,24.96289,10.40039c7.87402,0,15.05225-2.44043,21.34473-7.25684l25.58203,25.58203c-13.36572,11.73633-29.15137,17.68652-46.92676,17.68652Z"/>
    <path class="st0" d="M73.66944,4.07642c17.47196,0,33.00859,5.79018,46.19462,17.21148l-24.89961,24.89961c-6.29683-4.64683-13.45648-7.00171-21.29501-7.00171-9.80046,0-18.31814,3.54846-25.31316,10.54348-7.00054,6.93502-10.55012,15.45384-10.55012,25.3198,0,9.80012,3.54846,18.31764,10.5468,25.31598,6.99834,6.99834,15.51602,10.5468,25.31648,10.5468,7.84075,0,15.00184-2.38645,21.299-7.09538l24.89562,24.89561c-13.18603,11.4213-28.72266,17.21149-46.19462,17.21149-19.42434,0-36.27172-6.99843-50.07416-20.80084-13.80242-13.80244-20.80084-30.64964-20.80084-50.07366,0-19.48914,6.99842-36.36938,20.80084-50.17182,13.80244-13.80242,30.64982-20.80084,50.07416-20.80084M73.66944,3.07642c-19.792,0-36.71876,7.03124-50.78126,21.09374C8.82568,38.23266,1.79444,55.19262,1.79444,75.04908c0,19.7915,7.03124,36.71826,21.09374,50.78076,14.0625,14.06249,30.98926,21.09374,50.78126,21.09374,18.16405,0,34.04834-6.05469,47.65623-18.16406l-26.26952-26.26952c-6.31544,4.94824-13.44434,7.42186-21.38672,7.42186-9.57032,0-17.77344-3.41796-24.60938-10.2539s-10.2539-15.03906-10.2539-24.60888c0-9.63428,3.41796-17.83742,10.2539-24.60938,6.83594-6.83594,15.03906-10.2539,24.60938-10.2539,7.94238,0,15.07127,2.4414,21.38672,7.3242l26.26952-26.26952c-13.60789-12.10938-29.49218-18.16406-47.65623-18.16406h0Z"/>
  </g>
  <g>
    <path class="st1" d="M231.20654,144.37305l-5.64258-15.68457c-.07178-.19824-.25977-.33105-.4707-.33105h-51.95312c-.20996,0-.39746.13086-.46973.32812l-5.73926,15.6875h-38.29443L178.76514,5.23633h40.70312l50.12842,139.13672h-38.39014ZM199.1167,56.18945c-.21045,0-.39844.13184-.47021.32959l-12.69531,35.05908c-.05518.15332-.03271.32324.06104.45703.09326.13379.24609.21289.40918.21289h25.39062c.16309,0,.31592-.0791.40918-.21289.09375-.13379.11621-.30371.06104-.45703l-12.69531-35.05908c-.07178-.19775-.25977-.32959-.47021-.32959Z"/>
    <path class="st0" d="M219.11717,5.73657l49.76772,138.13624h-37.32692l-5.52374-15.35414c-.14279-.39685-.51921-.66148-.94096-.66148h-51.95312c-.41978,0-.79489.26218-.93912.65643l-5.61923,15.35919h-37.23329L179.11623,5.73657h40.00095M186.42139,92.74781h25.39062c.32599,0,.6315-.15888.8187-.42577.18719-.26685.23256-.60822.12155-.91472l-12.69531-35.05812c-.14334-.39584-.51924-.65952-.94025-.65952s-.79691.26368-.94025.65952l-12.69531,35.05812c-.11101.3065-.06564.64787.12155.91472.18719.26688.49271.42577.8187.42577M219.81982,4.73657h-41.40625l-50.48827,140.13624h39.35546l5.85938-16.01561h51.95312l5.76172,16.01561h39.45312L219.81982,4.73657h0ZM186.42139,91.74781l12.69531-35.05812,12.69531,35.05812h-25.39062Z"/>
  </g>
  <g>
    <path class="st1" d="M354.98877,144.37305l-12.5498-21.23828c-.09033-.15332-.25439-.24609-.43066-.24609-.01025,0-.021,0-.03125.00098-1.02148.06445-1.86523.09668-2.50781.09668h-23.33984c-.27637,0-.5.22363-.5.5v20.88672h-36.01172V5.23633h59.85156c16.19043,0,30.19971,5.79932,41.63867,17.23633,11.43701,11.43799,17.23633,25.44727,17.23633,41.63867,0,18.44043-7.26562,33.75293-21.59473,45.51172-.19092.15723-.23877.42969-.1123.6416l20.25439,34.1084h-41.90283ZM316.12939,41.24805c-.27637,0-.5.22363-.5.5v44.62891c0,.27637.22363.5.5.5h23.33984c6.29346,0,11.73486-2.25098,16.17383-6.68945,4.43896-4.4375,6.68945-9.84668,6.68945-16.07617,0-6.29248-2.25049-11.73389-6.68945-16.17383-4.44092-4.43896-9.88232-6.68945-16.17383-6.68945h-23.33984Z"/>
    <path class="st0" d="M339.46924,5.73657c16.05328,0,29.9436,5.7499,41.28503,17.0899,11.34006,11.341,17.08997,25.23132,17.08997,41.2851,0,18.28291-7.20395,33.46513-21.41171,45.12495-.38193.31344-.47772.8588-.22543,1.28362l19.80606,33.35268h-40.73892l-12.405-20.9931c-.18063-.30569-.50879-.49129-.86075-.49129-.02087,0-.04184.00066-.06284.00198-1.01138.0635-1.84457.0957-2.47641.0957h-23.33984c-.55228,0-1,.44772-1,1v20.38672h-35.01172V5.73657h59.35156M316.12939,87.37671h23.33984c6.43085,0,11.99146-2.29992,16.52734-6.83578,4.53598-4.53497,6.83594-10.06261,6.83594-16.42936,0-6.42982-2.2999-11.99042-6.83597-16.52752-4.53741-4.53588-10.09802-6.83576-16.52731-6.83576h-23.33984c-.55228,0-1,.44772-1,1v44.62842c0,.55228.44772,1,1,1M339.46924,4.73657h-60.35156v140.13624h37.01172v-21.38672h23.33984c.65039,0,1.49707-.03223,2.53906-.09766l12.69531,21.48438h43.06641l-20.70312-34.86327c14.51758-11.91406,21.77734-27.21192,21.77734-45.89796,0-16.40624-5.79492-30.40332-17.38281-41.99218-11.58887-11.5874-25.58594-17.38282-41.99219-17.38282h0ZM316.12939,86.37671v-44.62842h23.33984c6.18457,0,11.45801,2.18214,15.82031,6.54298,4.36133,4.3623,6.54297,9.63574,6.54297,15.8203,0,6.12012-2.18164,11.36182-6.54297,15.72218-4.3623,4.3623-9.63574,6.54296-15.82031,6.54296h-23.33984Z"/>
  </g>
  <g>
    <path class="st1" d="M416.71338,144.37305V5.23633h85.32764v36.01172h-48.81592c-.27637,0-.5.22363-.5.5v14.55078c0,.27637.22363.5.5.5h45.59375v36.01172h-45.59375c-.27637,0-.5.22363-.5.5v14.55078c0,.27637.22363.5.5.5h48.81592v36.01172h-85.32764Z"/>
    <path class="st0" d="M501.5415,5.73657v35.01172h-48.31641c-.55228,0-1,.44772-1,1v14.55078c0,.55228.44772,1,1,1h45.09375v35.01124h-45.09375c-.55228,0-1,.44772-1,1v14.55077c0,.55228.44772,1,1,1h48.31641v35.01172h-84.32812V5.73657h84.32812M502.5415,4.73657h-86.32812v140.13624h86.32812v-37.01172h-49.31641v-14.55077h46.09375v-37.01124h-46.09375v-14.55078h49.31641V4.73657h0Z"/>
  </g>
  <g>
    <path class="st1" d="M523.57031,144.37305V5.23633h85.32812v36.01172h-48.81641c-.27637,0-.5.22363-.5.5v14.55078c0,.27637.22363.5.5.5h45.59375v36.01172h-45.59375c-.27637,0-.5.22363-.5.5v14.55078c0,.27637.22363.5.5.5h48.81641v36.01172h-85.32812Z"/>
    <path class="st0" d="M608.39893,5.73657v35.01172h-48.31641c-.55225,0-1,.44772-1,1v14.55078c0,.55228.44775,1,1,1h45.09375v35.01124h-45.09375c-.55225,0-1,.44772-1,1v14.55077c0,.55228.44775,1,1,1h48.31641v35.01172h-84.32812V5.73657h84.32812M609.39893,4.73657h-86.32812v140.13624h86.32812v-37.01172h-49.31641v-14.55077h46.09375v-37.01124h-46.09375v-14.55078h49.31641V4.73657h0Z"/>
  </g>
  <g>
    <path class="st1" d="M705.79883,144.37305l-12.5498-21.23828c-.09082-.15332-.25488-.24609-.43066-.24609-.01074,0-.02051,0-.03125.00098-1.02051.06445-1.86426.09668-2.50781.09668h-23.33984c-.27637,0-.5.22363-.5.5v20.88672h-36.01172V5.23633h59.85156c16.19141,0,30.2002,5.79932,41.63867,17.23633,11.4375,11.43799,17.23633,25.44727,17.23633,41.63867,0,18.44043-7.26562,33.75293-21.59473,45.51172-.19043.15723-.23828.42969-.1123.6416l20.25391,34.1084h-41.90234ZM666.93945,41.24805c-.27637,0-.5.22363-.5.5v44.62891c0,.27637.22363.5.5.5h23.33984c6.29395,0,11.73633-2.25098,16.17383-6.68945,4.43848-4.4375,6.68945-9.84668,6.68945-16.07617,0-6.29248-2.25098-11.73389-6.68945-16.17383-4.43945-4.43896-9.88184-6.68945-16.17383-6.68945h-23.33984Z"/>
    <path class="st0" d="M690.27979,5.73657c16.05328,0,29.9436,5.7499,41.28503,17.0899,11.34009,11.341,17.08997,25.23132,17.08997,41.2851,0,18.28291-7.20392,33.46513-21.41174,45.12495-.3819.31344-.47766.8588-.2254,1.28362l19.80603,33.35268h-40.73889l-12.40503-20.9931c-.1806-.30569-.50873-.49129-.86072-.49129-.02087,0-.04181.00066-.06287.00198-1.01135.0635-1.84454.0957-2.47638.0957h-23.33984c-.55231,0-1,.44772-1,1v20.38672h-35.01172V5.73657h59.35156M666.93994,87.37671h23.33984c6.43085,0,11.99146-2.29992,16.52734-6.83578,4.53601-4.53497,6.83594-10.06261,6.83594-16.42936,0-6.42982-2.29987-11.99042-6.836-16.52752-4.53735-4.53588-10.09796-6.83576-16.52728-6.83576h-23.33984c-.55231,0-1,.44772-1,1v44.62842c0,.55228.44769,1,1,1M690.27979,4.73657h-60.35156v140.13624h37.01172v-21.38672h23.33984c.65039,0,1.49707-.03223,2.53906-.09766l12.69531,21.48438h43.06641l-20.70312-34.86327c14.51758-11.91406,21.77734-27.21192,21.77734-45.89796,0-16.40624-5.79492-30.40332-17.38281-41.99218-11.58887-11.5874-25.58594-17.38282-41.99219-17.38282h0ZM666.93994,86.37671v-44.62842h23.33984c6.18457,0,11.45801,2.18214,15.82031,6.54298,4.36133,4.3623,6.54297,9.63574,6.54297,15.8203,0,6.12012-2.18164,11.36182-6.54297,15.72218-4.3623,4.3623-9.63574,6.54296-15.82031,6.54296h-23.33984Z"/>
  </g>
  <g>
    <path class="st1" d="M899.94727,138.2207c-4.79199,0-8.88184-1.5957-12.15332-4.74316-3.26758-3.14258-4.9248-7.0625-4.9248-11.65137,0-2.52637.49609-4.99121,1.47461-7.32617.98047-2.33789,2.40723-4.45312,4.23828-6.28516l13.76953-13.76953c.14258-.14258.18555-.3584.1084-.54492s-.25977-.30859-.46191-.30859h-90.42969c-4.98242,0-9.25-1.72559-12.68555-5.12891-3.43262-3.40137-5.17383-7.7168-5.17383-12.82812,0-4.98096,1.74121-9.24805,5.17578-12.68359,3.43555-3.43457,7.70312-5.17578,12.68359-5.17578h90.42969c.19629,0,.37402-.11426.45508-.29297.08105-.17822.05078-.3877-.07812-.53516l-13.76953-15.82031c-1.91699-2.04492-3.36328-4.18164-4.3125-6.36523-.94531-2.17236-1.42383-4.35596-1.42383-6.49023,0-4.06201,1.70117-7.63281,5.05664-10.6123,3.37402-2.99463,7.41797-4.5127,12.02148-4.5127,2.58203,0,5.05762.54297,7.35742,1.61328,2.30176,1.07324,4.29883,2.5752,5.93652,4.46436l50.29395,56.41113-50.28906,56.50342c-1.76465,1.9541-3.81348,3.47461-6.08496,4.5166-2.26758,1.03906-4.69434,1.56543-7.21387,1.56543Z"/>
    <path class="st0" d="M899.94775,13.64674c2.50854,0,4.91296.52712,7.14575,1.56645,2.23773,1.04345,4.17926,2.50317,5.77972,4.34902l49.9931,56.07335-49.98877,56.1646c-1.72278,1.90733-3.71613,3.38768-5.92456,4.3999-2.20117,1.00885-4.55804,1.52037-7.00525,1.52037-4.65875,0-8.63116-1.54883-11.80695-4.60371-3.21051-3.0864-4.77118-6.77966-4.77118-11.2908,0-2.45979.48315-4.85966,1.43597-7.13303.95386-2.27619,2.34363-4.33691,4.13049-6.12471l13.76953-13.76955c.28601-.28598.37158-.7161.2168-1.08979-.15479-.37366-.51941-.61731-.92389-.61731h-90.42969c-4.84644,0-8.99597-1.67679-12.33331-4.98386-3.33508-3.30381-5.02606-7.50024-5.02606-12.47269,0-4.84389,1.69214-8.99231,5.02936-12.33,3.33728-3.33724,7.48566-5.02936,12.33002-5.02936h90.42969c.39191,0,.74768-.22893.9101-.5856s.1015-.77531-.15576-1.07093l-13.79437-15.84779c-1.86511-1.98914-3.28052-4.07812-4.20697-6.20888-.91693-2.109-1.3819-4.2255-1.3819-6.29071,0-3.9689,1.59906-7.31795,4.88849-10.23848,3.27893-2.91069,7.21191-4.38652,11.68964-4.38652M899.94775,12.64674c-4.75293,0-8.87109,1.54736-12.35352,4.63867-3.4834,3.09276-5.22461,6.75488-5.22461,10.98633,0,2.21386.48828,4.44336,1.46484,6.68945s2.44141,4.41112,4.39453,6.49414l13.76953,15.82031h-90.42969c-5.14355,0-9.48926,1.7744-13.03711,5.32226-3.54883,3.5493-5.32227,7.89502-5.32227,13.0371,0,5.27295,1.77344,9.6675,5.32227,13.18311,3.54785,3.51562,7.89355,5.27343,13.03711,5.27343h90.42969l-13.76953,13.76955c-1.88867,1.88965-3.33691,4.03807-4.3457,6.44531-1.00977,2.40916-1.51367,4.91698-1.51367,7.51952,0,4.75293,1.69238,8.75684,5.07812,12.01172,3.38477,3.25586,7.55176,4.8828,12.5,4.8828,2.60352,0,5.07812-.53709,7.42188-1.6113,2.34375-1.07425,4.42676-2.62012,6.25-4.6387l50.58594-56.83544-50.58594-56.73827c-1.69336-1.95314-3.72754-3.48195-6.10352-4.58986-2.37695-1.10643-4.89941-1.66014-7.56836-1.66014h0Z"/>
  </g>
</svg>