<?xml version="1.0" encoding="UTF-8"?>
<svg id="Layer_1" xmlns="http://www.w3.org/2000/svg" version="1.1" viewBox="0 0 889 150">
  <!-- Generator: Adobe Illustrator 29.5.1, SVG Export Plug-In . SVG Version: 2.1.0 Build 141)  -->
  <defs>
    <style>
      .st0 {
        fill: #1d1d1b;
      }

      .st1 {
        fill: #fff;
      }
    </style>
  </defs>
  <g>
    <path class="st1" d="M156.21143,144.37305l-31.22852-86.77881c-.07178-.19824-.25977-.33057-.4707-.33057s-.39893.13232-.4707.33057l-31.22852,86.77881h-40.70312L1.98145,5.23633h38.29297l31.7168,87.85352c.07129.19824.25977.33008.4707.33008.21045,0,.39844-.13281.47021-.33105L104.55127,5.23633h39.82471l31.7168,87.85352c.07129.19824.25977.33008.4707.33008.21045,0,.39844-.13281.47021-.33105L208.65283,5.23633h38.38965l-50.2251,139.13672h-40.60596Z"/>
    <path class="st0" d="M246.33026,5.73659l-49.86397,138.1362h-39.9035l-31.10965-86.44747c-.1428-.39683-.5192-.6614-.94093-.6614s-.79813.26457-.94093.6614l-31.10965,86.44747h-40.00068L2.69321,5.73659h37.23013l31.59754,87.52267c.14308.39635.51924.66043.94059.66043h.00047c.42154-.0002.79767-.26473.94041-.66136L104.90257,5.73659h39.12233l31.5975,87.52267c.14308.39635.51924.66043.94058.66043h.00049c.42152-.0002.79767-.26473.9404-.66136L209.00414,5.73659h37.32613M247.75441,4.73659h-39.45314l-31.7383,88.1831L144.72704,4.73659h-40.52733l-31.73827,88.1831L40.62547,4.73659H1.27001l50.4883,140.1362h41.40623l31.34766-87.10887,31.34767,87.10887h41.30859L247.75441,4.73659h0Z"/>
  </g>
  <g>
    <path class="st1" d="M319.01611,146.42383c-19.56152,0-36.52832-7.04785-50.42773-20.94727s-20.94727-30.86621-20.94727-50.42773c0-19.62646,7.04785-36.62598,20.94727-50.52539s30.86621-20.94727,50.42773-20.94727c19.62646,0,36.62598,7.04785,50.52539,20.94727s20.94727,30.89893,20.94727,50.52539c0,19.56152-7.04785,36.52832-20.94727,50.42773s-30.89893,20.94727-50.52539,20.94727ZM319.01611,39.68555c-9.66309,0-18.06152,3.49902-24.96289,10.40039-6.90088,6.83643-10.40039,15.23584-10.40039,24.96289,0,9.66309,3.49902,18.06152,10.40039,24.96289s15.2998,10.40039,24.96289,10.40039c9.72803,0,18.12744-3.5,24.96436-10.40234,6.8999-6.89941,10.39893-15.29785,10.39893-24.96094,0-9.72705-3.49951-18.12646-10.40186-24.96436-6.83398-6.89941-15.2334-10.39893-24.96143-10.39893Z"/>
    <path class="st0" d="M319.01611,4.07642c19.48914,0,36.36935,6.99842,50.17181,20.80084,13.80243,13.80244,20.80084,30.68268,20.80084,50.17182,0,19.42402-6.99841,36.27122-20.80084,50.07366-13.80246,13.80241-30.68268,20.80084-50.17181,20.80084-19.42435,0-36.2717-6.99843-50.07416-20.80084-13.80241-13.80244-20.80083-30.64964-20.80083-50.07366,0-19.48914,6.99841-36.36938,20.80083-50.17182,13.80246-13.80242,30.64981-20.80084,50.07416-20.80084M319.01611,110.91186c9.86646,0,18.38525-3.54958,25.31647-10.5468,6.99835-6.99834,10.54681-15.51588,10.54681-25.31598,0-9.86594-3.54956-18.38476-10.54349-25.31312-6.93454-7.00058-15.45334-10.55016-25.31979-10.55016-9.80045,0-18.31815,3.54846-25.31314,10.54348-7.00055,6.93502-10.55014,15.45384-10.55014,25.3198,0,9.80012,3.54846,18.31764,10.54681,25.31598,6.99832,6.99834,15.51602,10.5468,25.31647,10.5468M319.01611,3.07642c-19.79199,0-36.71875,7.03124-50.78125,21.09374-14.0625,14.0625-21.09373,31.02246-21.09373,50.87892,0,19.7915,7.03123,36.71826,21.09373,50.78076,14.0625,14.06249,30.98926,21.09374,50.78125,21.09374,19.85645,0,36.81641-7.03125,50.87891-21.09374,14.0625-14.0625,21.09375-30.98926,21.09375-50.78076,0-19.85646-7.03125-36.81642-21.09375-50.87892-14.0625-14.0625-31.02246-21.09374-50.87891-21.09374h0ZM319.01611,109.91186c-9.57031,0-17.77344-3.41796-24.60938-10.2539s-10.25391-15.03906-10.25391-24.60888c0-9.63428,3.41797-17.83742,10.25391-24.60938,6.83594-6.83594,15.03906-10.2539,24.60938-10.2539,9.63477,0,17.83789,3.41796,24.60938,10.2539,6.83594,6.77196,10.25391,14.9751,10.25391,24.60938,0,9.56982-3.41797,17.77294-10.25391,24.60888-6.77148,6.83594-14.97461,10.2539-24.60938,10.2539h0Z"/>
  </g>
  <g>
    <path class="st1" d="M483.63428,144.37305l-12.5498-21.23828c-.09033-.15332-.25439-.24609-.43066-.24609-.01025,0-.021,0-.03125.00098-1.02148.06445-1.86523.09668-2.50781.09668h-23.33984c-.27637,0-.5.22363-.5.5v20.88672h-36.01172V5.23633h59.85156c16.18994,0,30.19971,5.79932,41.63916,17.23633,11.4375,11.43799,17.23633,25.44727,17.23633,41.63867,0,18.44043-7.26562,33.75293-21.59473,45.51172-.19043.15723-.23828.42969-.1123.6416l20.25391,34.1084h-41.90283ZM444.7749,41.24805c-.27637,0-.5.22363-.5.5v44.62891c0,.27637.22363.5.5.5h23.33984c6.29346,0,11.73486-2.25098,16.17383-6.68945,4.43896-4.4375,6.68945-9.84668,6.68945-16.07617,0-6.29248-2.25049-11.73389-6.68945-16.17383-4.44092-4.43896-9.88232-6.68945-16.17383-6.68945h-23.33984Z"/>
    <path class="st0" d="M468.11475,5.73657c16.05328,0,29.9436,5.7499,41.28503,17.0899,11.34009,11.341,17.08997,25.23132,17.08997,41.2851,0,18.28291-7.20392,33.46513-21.41171,45.12495-.38193.31344-.47772.8588-.22543,1.28362l19.80603,33.35268h-40.73889l-12.405-20.9931c-.18063-.30569-.50879-.49129-.86075-.49129-.02087,0-.04184.00066-.06284.00198-1.01138.0635-1.84457.0957-2.47641.0957h-23.33984c-.55228,0-1,.44772-1,1v20.38672h-35.01172V5.73657h59.35156M444.7749,87.37671h23.33984c6.43085,0,11.99146-2.29992,16.52734-6.83578,4.53598-4.53497,6.83594-10.06261,6.83594-16.42936,0-6.42982-2.2999-11.99042-6.83597-16.52752-4.53741-4.53588-10.09802-6.83576-16.52731-6.83576h-23.33984c-.55228,0-1,.44772-1,1v44.62842c0,.55228.44772,1,1,1M468.11475,4.73657h-60.35156v140.13624h37.01172v-21.38672h23.33984c.65039,0,1.49707-.03223,2.53906-.09766l12.69531,21.48438h43.06641l-20.70312-34.86327c14.51758-11.91406,21.77734-27.21192,21.77734-45.89796,0-16.40624-5.79492-30.40332-17.38281-41.99218-11.58887-11.5874-25.58594-17.38282-41.99219-17.38282h0ZM444.7749,86.37671v-44.62842h23.33984c6.18457,0,11.45801,2.18214,15.82031,6.54298,4.36133,4.3623,6.54297,9.63574,6.54297,15.8203,0,6.12012-2.18164,11.36182-6.54297,15.72218-4.3623,4.3623-9.63574,6.54296-15.82031,6.54296h-23.33984Z"/>
  </g>
  <g>
    <path class="st1" d="M634.17188,144.37305l-35.29883-47.06543c-.09277-.12305-.23633-.19629-.38965-.2002h-.01074c-.14941,0-.29102.06641-.38672.18262l-16.60156,20.21484c-.07324.08984-.11328.20117-.11328.31738v26.55078h-36.01172V5.23633h36.01172v54.1875c0,.21094.13281.39941.33105.4707.05566.01953.1123.0293.16895.0293.14648,0,.28906-.06494.38672-.18262l44.77148-54.50488h46.65527l-51.37988,62.56152c-.14551.17822-.15137.43311-.01367.61719l56.9209,75.95801h-45.04004Z"/>
    <path class="st0" d="M672.62646,5.73657l-50.70831,61.74426c-.29236.356-.30371.86568-.02747,1.23434l56.3208,75.15764h-43.7901l-35.14923-46.86562c-.1842-.24562-.47101-.393-.77795-.39976-.00739-.00017-.01471-.00024-.02203-.00024-.29889,0-.58264.13379-.77283.36534l-16.60156,20.21484c-.14685.17888-.22717.40318-.22717.63466v26.05077h-35.01172V5.73657h35.01172v53.6875c0,.42232.26532.7991.6629.94146.11029.03951.22418.05859.33691.05859.29358,0,.57922-.12952.77289-.36531l44.62189-54.32224h45.36127M674.7417,4.73657h-47.94922l-44.92188,54.6875V4.73657h-37.01172v140.13624h37.01172v-27.05077l16.60156-20.21484,35.44922,47.26562h46.28906l-57.51953-76.75732,52.05078-63.37892h0Z"/>
  </g>
  <g>
    <path class="st1" d="M823.47266,138.2207c-4.79199,0-8.88184-1.5957-12.15332-4.74316-3.26758-3.14062-4.9248-7.06055-4.9248-11.65137,0-2.52637.49609-4.99121,1.47461-7.32617.97754-2.33496,2.40332-4.44922,4.23828-6.28516l13.76953-13.76953c.14258-.14258.18555-.3584.1084-.54492s-.25977-.30859-.46191-.30859h-90.42969c-4.98438,0-9.25195-1.72559-12.68555-5.12891-3.43262-3.40137-5.17383-7.7168-5.17383-12.82812,0-4.98096,1.74121-9.24805,5.17578-12.68359,3.43359-3.43457,7.70117-5.17578,12.68359-5.17578h90.42969c.19629,0,.37402-.11426.45508-.29297.08105-.17822.05078-.3877-.07812-.53516l-13.76953-15.82031c-1.91699-2.04492-3.36328-4.18164-4.3125-6.36523-.94531-2.17236-1.42383-4.35596-1.42383-6.49023,0-4.06348,1.70117-7.63428,5.05664-10.6123,3.37402-2.99463,7.41797-4.5127,12.02148-4.5127,2.58203,0,5.05762.54297,7.35742,1.61328,2.30273,1.07471,4.30078,2.57715,5.93652,4.46436l50.29395,56.41113-50.28906,56.50342c-1.76855,1.95605-3.81641,3.47656-6.08496,4.5166-2.26758,1.03906-4.69434,1.56543-7.21387,1.56543Z"/>
    <path class="st0" d="M823.47217,13.64674c2.50854,0,4.91296.52712,7.14575,1.56645,2.23773,1.04345,4.17926,2.50317,5.77972,4.34902l49.9931,56.07335-49.98877,56.1646c-1.72278,1.90733-3.71613,3.38768-5.92456,4.3999-2.20117,1.00885-4.55804,1.52037-7.00525,1.52037-4.65875,0-8.63116-1.54883-11.80695-4.60371-3.21051-3.0864-4.77118-6.77966-4.77118-11.2908,0-2.45979.48315-4.85966,1.43597-7.13303.95386-2.27619,2.34363-4.33691,4.13049-6.12471l13.76953-13.76955c.28601-.28598.37158-.7161.2168-1.08979-.15479-.37366-.51941-.61731-.92389-.61731h-90.42969c-4.84644,0-8.99597-1.67679-12.33331-4.98386-3.33508-3.30381-5.02606-7.50024-5.02606-12.47269,0-4.84389,1.69214-8.99231,5.02936-12.33,3.33728-3.33724,7.48566-5.02936,12.33002-5.02936h90.42969c.39191,0,.74768-.22893.9101-.5856s.1015-.77531-.15576-1.07093l-13.79437-15.84779c-1.86511-1.98914-3.28052-4.07812-4.20697-6.20888-.91693-2.109-1.3819-4.2255-1.3819-6.29071,0-3.9689,1.59906-7.31795,4.88849-10.23848,3.27893-2.91069,7.21191-4.38652,11.68964-4.38652M823.47217,12.64674c-4.75293,0-8.87109,1.54736-12.35352,4.63867-3.4834,3.09276-5.22461,6.75488-5.22461,10.98633,0,2.21386.48828,4.44336,1.46484,6.68945s2.44141,4.41112,4.39453,6.49414l13.76953,15.82031h-90.42969c-5.14355,0-9.48926,1.7744-13.03711,5.32226-3.54883,3.5493-5.32227,7.89502-5.32227,13.0371,0,5.27295,1.77344,9.6675,5.32227,13.18311,3.54785,3.51562,7.89355,5.27343,13.03711,5.27343h90.42969l-13.76953,13.76955c-1.88867,1.88965-3.33691,4.03807-4.3457,6.44531-1.00977,2.40916-1.51367,4.91698-1.51367,7.51952,0,4.75293,1.69238,8.75684,5.07812,12.01172,3.38477,3.25586,7.55176,4.8828,12.5,4.8828,2.60352,0,5.07812-.53709,7.42188-1.6113,2.34375-1.07425,4.42676-2.62012,6.25-4.6387l50.58594-56.83544-50.58594-56.73827c-1.69336-1.95314-3.72754-3.48195-6.10352-4.58986-2.37695-1.10643-4.89941-1.66014-7.56836-1.66014h0Z"/>
  </g>
</svg>