<?xml version="1.0" encoding="UTF-8"?>
<svg id="Layer_1" xmlns="http://www.w3.org/2000/svg" version="1.1" viewBox="0 0 119 76">
  <!-- Generator: Adobe Illustrator 29.5.1, SVG Export Plug-In . SVG Version: 2.1.0 Build 141)  -->
  <defs>
    <style>
      .st0 {
        fill: #1d1d1b;
      }

      .st1 {
        fill: #fff;
      }
    </style>
  </defs>
  <g>
    <path class="st1" d="M32.71875,73.7998c-5.74805,0-10.94189-1.40527-15.43799-4.17578-4.49658-2.76953-8.0835-6.8877-10.66113-12.24121-2.58838-5.36914-3.90088-11.88965-3.90088-19.38281,0-7.49072,1.3125-14.01221,3.90039-19.38281,2.57861-5.35254,6.16553-9.47119,10.66162-12.24121,4.49902-2.771,9.69336-4.17578,15.43799-4.17578s10.95557,1.40527,15.48926,4.17676c4.52734,2.76904,8.11328,6.88672,10.66016,12.23779,2.55469,5.37402,3.85059,11.896,3.85059,19.38525,0,7.49121-1.2959,14.0127-3.85059,19.38477-2.5459,5.35156-6.13281,9.46973-10.66016,12.23828-4.53027,2.77148-9.7417,4.17676-15.48926,4.17676ZM32.71875,16.6001c-3.89844,0-6.98486,1.76074-9.17285,5.2334-2.1416,3.3999-3.22705,8.83887-3.22705,16.1665,0,7.3291,1.08545,12.76855,3.22705,16.16699,2.1875,3.47266,5.27344,5.2334,9.17285,5.2334,3.89697,0,6.99902-1.75977,9.2207-5.23047,2.17627-3.40039,3.2793-8.84082,3.2793-16.16992,0-7.32764-1.10303-12.76758-3.27881-16.16943-2.22266-3.4707-5.3252-5.23047-9.22119-5.23047Z"/>
    <path class="st0" d="M32.71875,2.7002c5.65104,0,10.77461,1.38052,15.22818,4.10305,4.4431,2.71793,7.96552,6.76416,10.46931,12.02607,2.52316,5.30652,3.80252,11.75646,3.80252,19.17068,0,7.41627-1.27933,13.866-3.80247,19.1701-2.50313,5.26287-6.02548,9.30918-10.46936,12.02666-4.45058,2.72259-9.57407,4.10304-15.22816,4.10304s-10.75966-1.37988-15.17576-4.10146c-4.41395-2.71865-7.9376-6.76699-10.47326-12.03302-2.55532-5.30006-3.85098-11.74821-3.85098-19.16532,0-7.41507,1.29568-13.86343,3.85112-19.16609,2.53625-5.26488,6.05995-9.31315,10.47307-12.03222,4.41911-2.72154,9.52499-4.10148,15.17581-4.10148M32.71875,59.90039c4.07833,0,7.32238-1.8373,9.64211-5.46101,2.25952-3.53101,3.35789-8.90837,3.35789-16.43938,0-7.52913-1.09834-12.90628-3.35806-16.43916-2.32028-3.62348-5.56429-5.46074-9.64194-5.46074-4.08178,0-7.31035,1.83933-9.59616,5.46707-2.22308,3.52975-3.30374,8.90498-3.30374,16.43283,0,7.52974,1.08069,12.90518,3.30378,16.43336,2.28507,3.62765,5.51368,5.46703,9.59613,5.46703M32.71875,1.7002c-5.86719,0-11.10009,1.41699-15.7002,4.25-4.5996,2.83398-8.21679,6.98437-10.8496,12.44971-2.63476,5.46728-3.9502,12-3.9502,19.60009s1.31544,14.13477,3.9502,19.59961c2.63281,5.46778,6.25,9.61719,10.8496,12.45019,4.60011,2.83497,9.83301,4.25,15.7002,4.25,5.86572,0,11.11572-1.41503,15.75-4.25,4.63281-2.833,8.25-6.98241,10.85059-12.45019,2.59961-5.46484,3.89941-11.99952,3.89941-19.59961s-1.2998-14.13281-3.89941-19.60009c-2.60059-5.46534-6.21778-9.61573-10.85059-12.44971-4.63428-2.83301-9.88428-4.25-15.75-4.25h0ZM32.71875,58.90039c-3.73438,0-6.64991-1.66602-8.75-5-2.10009-3.333-3.14991-8.6333-3.14991-15.90039,0-7.26562,1.04981-12.56543,3.14991-15.89991,2.10009-3.333,5.01562-5,8.75-5,3.73291,0,6.66553,1.667,8.7998,5,2.13281,3.33447,3.2002,8.63428,3.2002,15.89991,0,7.26709-1.06739,12.56739-3.2002,15.90039-2.13427,3.33398-5.06689,5-8.7998,5h0Z"/>
  </g>
  <g>
    <path class="st1" d="M86.88086,73.7998c-4.86621,0-9.73633-.61719-14.47559-1.83398-4.55664-1.1709-8.58301-2.83496-11.97559-4.94727l6.5459-13.18652c2.64746,1.73633,5.64258,3.11328,8.91211,4.09668,3.45996,1.04297,6.99023,1.57129,10.49316,1.57129,3.74609,0,6.76465-.71582,8.96973-2.12891,2.27637-1.45801,3.43066-3.50098,3.43066-6.07129,0-5.17578-4.10449-7.7998-12.2002-7.7998h-7.5v-11.40479l13.06738-14.15576c.13477-.146.1709-.35791.09082-.54004-.08008-.18164-.25977-.29932-.45801-.29932h-27.7998V3.5h49v11.10645l-14.6709,16.15771c-.12109.13379-.16113.32227-.10449.49365.05762.17139.20215.29883.37988.33301,5.72754,1.10742,10.15723,3.4248,13.16797,6.88721,3.00391,3.45654,4.52734,7.77002,4.52734,12.82178,0,4.01758-1.08398,7.76367-3.22168,11.13281-2.13867,3.36914-5.4502,6.13281-9.84277,8.21484-4.41309,2.0918-9.90918,3.15234-16.33594,3.15234Z"/>
    <path class="st0" d="M112.48145,4v10.41353l-14.54114,16.01434c-.24287.26749-.32258.6452-.20849.98802.1141.34282.40426.59743.75899.66602,5.61515,1.08574,9.9504,3.34803,12.88529,6.72399,2.92303,3.3631,4.40514,7.56666,4.40514,12.4939,0,3.92134-1.05785,7.57673-3.14412,10.86454-2.08701,3.28847-5.32863,5.9907-9.63476,8.03162-4.34544,2.05956-9.76949,3.10384-16.12151,3.10384-4.82387,0-9.65221-.61173-14.35073-1.81815-4.33539-1.11405-8.18226-2.67693-11.44935-4.65027l6.09467-12.27691c2.56897,1.61991,5.44559,2.91411,8.56733,3.8532,3.50697,1.05659,7.08614,1.59232,10.63808,1.59232,3.84352,0,6.95215-.74277,9.23958-2.20776,2.42914-1.55602,3.66081-3.74039,3.66081-6.49244,0-5.50734-4.27296-8.2998-12.7002-8.2998h-7v-10.70912l12.93499-14.0125c.26942-.29185.34057-.7155.18126-1.07936-.1593-.36386-.51884-.59893-.91605-.59893h-27.2998V4h48M113.48145,3h-50v14.6001h28.2998l-13.2002,14.2998v12.1001h8c7.79981,0,11.7002,2.43457,11.7002,7.2998,0,2.40039-1.06738,4.28418-3.2002,5.65039-2.13475,1.3672-5.03417,2.04981-8.70019,2.04981-3.4668,0-6.91698-.51562-10.34961-1.54981-3.43457-1.0332-6.51758-2.48338-9.25-4.35057l-7,14.10057c3.53222,2.26662,7.7002,4.01662,12.5,5.25,4.7998,1.23243,9.66505,1.84962,14.59961,1.84962,6.5332,0,12.0498-1.06738,16.5498-3.20019,4.5-2.13281,7.85059-4.93262,10.05079-8.39943,2.19921-3.46581,3.2998-7.26562,3.2998-11.40039,0-5.1997-1.5498-9.58252-4.65039-13.1499-3.09961-3.56543-7.58398-5.91552-13.4502-7.0498l14.80079-16.3003V3h0Z"/>
  </g>
</svg>