<?xml version="1.0" encoding="UTF-8"?>
<svg id="Layer_1" xmlns="http://www.w3.org/2000/svg" version="1.1" viewBox="0 0 100 76">
  <!-- Generator: Adobe Illustrator 29.5.1, SVG Export Plug-In . SVG Version: 2.1.0 Build 141)  -->
  <defs>
    <style>
      .st0 {
        fill: #fff;
      }
    </style>
  </defs>
  <g>
    <path d="M32.4165,73.7998c-5.74805,0-10.94189-1.40527-15.43799-4.17578-4.49658-2.76953-8.0835-6.8877-10.66113-12.24121-2.58838-5.36914-3.90088-11.88965-3.90088-19.38281,0-7.49121,1.3125-14.01221,3.90039-19.38232,2.57861-5.35303,6.16553-9.47168,10.66162-12.2417,4.49902-2.771,9.69336-4.17578,15.43799-4.17578s10.95557,1.40527,15.48926,4.17676c4.52783,2.76953,8.11377,6.88672,10.65967,12.23828,2.55566,5.375,3.85156,11.89697,3.85156,19.38477,0,7.49023-1.2959,14.01172-3.85156,19.38477-2.54492,5.35156-6.13086,9.46973-10.65967,12.23828-4.53027,2.77148-9.7417,4.17676-15.48926,4.17676ZM32.4165,16.60059c-3.89893,0-6.98486,1.76074-9.17285,5.2334-2.1416,3.39941-3.22705,8.83838-3.22705,16.16602,0,7.3291,1.08545,12.76855,3.22705,16.16699,2.1875,3.47266,5.27344,5.2334,9.17285,5.2334,3.89697,0,6.99902-1.75977,9.2207-5.23047,2.17627-3.40039,3.2793-8.84082,3.2793-16.16992,0-7.32764-1.10303-12.76758-3.27881-16.16895-2.22266-3.4707-5.3252-5.23047-9.22119-5.23047Z"/>
    <path class="st0" d="M32.41652,2.70018c5.65101,0,10.77459,1.38052,15.22818,4.10304,4.4434,2.71812,7.96564,6.7645,10.46879,12.02653,2.52351,5.30775,3.80302,11.75755,3.80302,19.17023,0,7.41459-1.27951,13.86434-3.80299,19.17016-2.50259,5.26269-6.02476,9.309-10.46883,12.0266-4.45059,2.72259-9.57408,4.10305-15.22816,4.10305s-10.75966-1.37988-15.17576-4.10146c-4.41397-2.71866-7.93761-6.767-10.47327-12.03304-2.55532-5.30004-3.85098-11.74819-3.85098-19.16532,0-7.41523,1.29567-13.86342,3.85113-19.16565,2.53613-5.26511,6.05984-9.31352,10.47307-12.03268,4.41912-2.72154,9.525-4.10148,15.17581-4.10148M32.4165,59.90039c4.07833,0,7.32238-1.83729,9.64211-5.461,2.25952-3.53102,3.35789-8.90839,3.35789-16.43939,0-7.52934-1.09835-12.90635-3.35806-16.43867-2.32028-3.62348-5.5643-5.46074-9.64194-5.46074-4.08176,0-7.31035,1.83933-9.59613,5.46702-2.22309,3.52924-3.30377,8.90432-3.30377,16.43239,0,7.52974,1.08069,12.90518,3.30377,16.43336,2.28508,3.62766,5.51369,5.46702,9.59613,5.46702M32.41652,1.70018c-5.8672,0-11.10011,1.417-15.7002,4.25-4.59961,2.834-8.2168,6.98438-10.84961,12.4502-2.63478,5.4668-3.9502,12-3.9502,19.59961s1.31542,14.13477,3.9502,19.59961c2.63281,5.46778,6.25,9.61719,10.84961,12.4502,4.60009,2.83495,9.83301,4.25,15.7002,4.25,5.86572,0,11.11572-1.41505,15.75-4.25,4.6328-2.83301,8.24999-6.98244,10.85009-12.4502,2.59912-5.46485,3.89989-12,3.89989-19.59961s-1.30078-14.13281-3.89989-19.59961c-2.60009-5.46582-6.21729-9.61622-10.85009-12.4502-4.63428-2.833-9.88428-4.25-15.75-4.25h0ZM32.4165,58.90039c-3.73438,0-6.64989-1.66601-8.75-5-2.10009-3.33301-3.14989-8.63281-3.14989-15.90039,0-7.26562,1.0498-12.56543,3.14989-15.89941,2.10011-3.33301,5.01562-5,8.75-5,3.73292,0,6.66552,1.66699,8.7998,5,2.13282,3.33398,3.2002,8.63379,3.2002,15.89941,0,7.26758-1.06739,12.56738-3.2002,15.90039-2.13427,3.33399-5.06688,5-8.7998,5h0Z"/>
  </g>
  <g>
    <path d="M80.2832,72.5V17.60059c0-.27637-.22363-.5-.5-.5h-12.89941V3.5h30.7002v69h-17.30078Z"/>
    <path class="st0" d="M97.08351,4c0,7.89783,0,60.1059,0,68h-16.30078V17.60059c0-.55229-.44771-1-1-1h-12.39941V4h29.7002M98.08351,3h-31.7002v14.60059h13.39941v55.39941h18.30078s0-70,0-70h0Z"/>
  </g>
</svg>