<?xml version="1.0" encoding="UTF-8"?>
<svg id="Layer_1" xmlns="http://www.w3.org/2000/svg" version="1.1" viewBox="0 0 1084 150">
  <!-- Generator: Adobe Illustrator 29.5.1, SVG Export Plug-In . SVG Version: 2.1.0 Build 141)  -->
  <defs>
    <style>
      .st0 {
        fill: #1d1d1b;
      }

      .st1 {
        fill: #fff;
      }
    </style>
  </defs>
  <g>
    <path class="st1" d="M2.97412,144.37305V5.23633h59.85156c16.19043,0,30.19971,5.79932,41.63867,17.23633,11.43701,11.43848,17.23633,25.44775,17.23633,41.63867,0,16.12793-5.79932,30.10449-17.23633,41.54102-11.43701,11.50195-25.4458,17.33398-41.63867,17.33398h-23.33984c-.27637,0-.5.22363-.5.5v20.88672H2.97412ZM39.48584,41.24805c-.27637,0-.5.22363-.5.5v44.62891c0,.27637.22363.5.5.5h23.33984c6.29346,0,11.73486-2.25098,16.17383-6.68945,4.43896-4.43799,6.68945-9.84717,6.68945-16.07617,0-6.29199-2.25049-11.7334-6.68945-16.17383-4.44092-4.43896-9.88232-6.68945-16.17383-6.68945h-23.33984Z"/>
    <path class="st0" d="M62.82568,5.73657c16.0533,0,29.94362,5.7499,41.28502,17.08988,11.34008,11.34148,17.08998,25.2318,17.08998,41.28512,0,15.99012-5.74988,29.8474-17.09194,41.18896-11.33852,11.4035-25.22816,17.18555-41.28306,17.18555h-23.33984c-.55228,0-1,.44772-1,1v20.38672H3.47412V5.73657h59.35156M39.48584,87.37671h23.33984c6.43084,0,11.99146-2.29992,16.52738-6.83582,4.53598-4.53546,6.8359-10.06308,6.8359-16.42932,0-6.42932-2.29988-11.9899-6.83598-16.52752-4.5374-4.53588-10.098-6.83576-16.5273-6.83576h-23.33984c-.55228,0-1,.44772-1,1v44.62842c0,.55228.44772,1,1,1M62.82568,4.73657H2.47412v140.13624h37.01172v-21.38672h23.33984c16.40626,0,30.40332-5.8252,41.99218-17.48048,11.58742-11.5869,17.38282-25.55176,17.38282-41.89404,0-16.40624-5.7954-30.40332-17.38282-41.99218-11.58886-11.5874-25.58592-17.38282-41.99218-17.38282h0ZM39.48584,86.37671v-44.62842h23.33984c6.18458,0,11.458,2.18214,15.82032,6.54298,4.36084,4.3623,6.54296,9.63574,6.54296,15.8203,0,6.12012-2.18212,11.36182-6.54296,15.72218-4.36232,4.3623-9.63574,6.54296-15.82032,6.54296h-23.33984Z"/>
  </g>
  <g>
    <path class="st1" d="M205.10498,146.42383c-19.56152,0-36.52832-7.04785-50.42773-20.94727s-20.94727-30.86621-20.94727-50.42773c0-19.62646,7.04785-36.62598,20.94727-50.52539S185.54346,3.57617,205.10498,3.57617c19.62646,0,36.62598,7.04785,50.52539,20.94727s20.94727,30.89893,20.94727,50.52539c0,19.56152-7.04785,36.52832-20.94727,50.42773s-30.89893,20.94727-50.52539,20.94727ZM205.10498,39.68555c-9.66309,0-18.06152,3.49902-24.96289,10.40039-6.90088,6.83643-10.40039,15.23584-10.40039,24.96289,0,9.66309,3.49902,18.06152,10.40039,24.96289s15.2998,10.40039,24.96289,10.40039c9.72803,0,18.12744-3.5,24.96436-10.40234,6.8999-6.89941,10.39893-15.29785,10.39893-24.96094,0-9.72705-3.49951-18.12646-10.40186-24.96436-6.83398-6.89941-15.2334-10.39893-24.96143-10.39893Z"/>
    <path class="st0" d="M205.105,4.07642c19.48914,0,36.36935,6.99842,50.1718,20.80084,13.80243,13.80244,20.80084,30.68268,20.80084,50.17182,0,19.42402-6.99841,36.27122-20.80084,50.07366-13.80244,13.80241-30.68266,20.80084-50.1718,20.80084-19.42435,0-36.27173-6.99843-50.07417-20.80084-13.80241-13.80244-20.80083-30.64964-20.80083-50.07366,0-19.48914,6.99841-36.36938,20.80083-50.17182,13.80244-13.80242,30.64983-20.80084,50.07417-20.80084M205.105,110.91186c9.86644,0,18.38525-3.54958,25.31645-10.5468,6.99837-6.99834,10.54681-15.51588,10.54681-25.31598,0-9.86594-3.54958-18.38476-10.54347-25.31312-6.93454-7.00058-15.45335-10.55016-25.31979-10.55016-9.80046,0-18.31815,3.54846-25.31317,10.54348-7.00053,6.93502-10.55011,15.45384-10.55011,25.3198,0,9.80012,3.54845,18.31764,10.5468,25.31598,6.99834,6.99834,15.51602,10.5468,25.31648,10.5468M205.105,3.07642c-19.79201,0-36.71877,7.03124-50.78127,21.09374-14.0625,14.0625-21.09373,31.02246-21.09373,50.87892,0,19.7915,7.03123,36.71826,21.09373,50.78076,14.0625,14.06249,30.98926,21.09374,50.78127,21.09374,19.85643,0,36.81639-7.03125,50.87889-21.09374,14.0625-14.0625,21.09375-30.98926,21.09375-50.78076,0-19.85646-7.03125-36.81642-21.09375-50.87892-14.0625-14.0625-31.02246-21.09374-50.87889-21.09374h0ZM205.105,109.91186c-9.57033,0-17.77345-3.41796-24.60939-10.2539s-10.25389-15.03906-10.25389-24.60888c0-9.63428,3.41795-17.83742,10.25389-24.60938,6.83594-6.83594,15.03906-10.2539,24.60939-10.2539,9.63475,0,17.83788,3.41796,24.60936,10.2539,6.83594,6.77196,10.25391,14.9751,10.25391,24.60938,0,9.56982-3.41797,17.77294-10.25391,24.60888-6.77148,6.83594-14.97461,10.2539-24.60936,10.2539h0Z"/>
  </g>
  <g>
    <path class="st1" d="M369.72314,144.37305l-12.5498-21.23828c-.09033-.15332-.25439-.24609-.43066-.24609-.01025,0-.021,0-.03125.00098-1.02148.06445-1.86523.09668-2.50781.09668h-23.33984c-.27637,0-.5.22363-.5.5v20.88672h-36.01172V5.23633h59.85156c16.19043,0,30.19971,5.79932,41.63867,17.23633,11.43701,11.43799,17.23633,25.44727,17.23633,41.63867,0,18.44043-7.26562,33.75293-21.59473,45.51172-.19092.15723-.23877.42969-.1123.6416l20.25439,34.1084h-41.90283ZM330.86377,41.24805c-.27637,0-.5.22363-.5.5v44.62891c0,.27637.22363.5.5.5h23.33984c6.29346,0,11.73486-2.25098,16.17383-6.68945,4.43896-4.4375,6.68945-9.84668,6.68945-16.07617,0-6.29248-2.25049-11.73389-6.68945-16.17383-4.44092-4.43896-9.88232-6.68945-16.17383-6.68945h-23.33984Z"/>
    <path class="st0" d="M354.20361,5.73657c16.05328,0,29.9436,5.7499,41.28503,17.0899,11.34006,11.341,17.08997,25.23132,17.08997,41.2851,0,18.28291-7.20395,33.46513-21.41171,45.12495-.38193.31344-.47772.8588-.22543,1.28362l19.80606,33.35268h-40.73892l-12.405-20.9931c-.18063-.30569-.50879-.49129-.86075-.49129-.02087,0-.04184.00066-.06284.00198-1.01138.0635-1.84457.0957-2.47641.0957h-23.33984c-.55228,0-1,.44772-1,1v20.38672h-35.01172V5.73657h59.35156M330.86377,87.37671h23.33984c6.43085,0,11.99146-2.29992,16.52734-6.83578,4.53598-4.53497,6.83594-10.06261,6.83594-16.42936,0-6.42982-2.2999-11.99042-6.83597-16.52752-4.53741-4.53588-10.09802-6.83576-16.52731-6.83576h-23.33984c-.55228,0-1,.44772-1,1v44.62842c0,.55228.44772,1,1,1M354.20361,4.73657h-60.35156v140.13624h37.01172v-21.38672h23.33984c.65039,0,1.49707-.03223,2.53906-.09766l12.69531,21.48438h43.06641l-20.70312-34.86327c14.51758-11.91406,21.77734-27.21192,21.77734-45.89796,0-16.40624-5.79492-30.40332-17.38281-41.99218-11.58887-11.5874-25.58594-17.38282-41.99219-17.38282h0ZM330.86377,86.37671v-44.62842h23.33984c6.18457,0,11.45801,2.18214,15.82031,6.54298,4.36133,4.3623,6.54297,9.63574,6.54297,15.8203,0,6.12012-2.18164,11.36182-6.54297,15.72218-4.3623,4.3623-9.63574,6.54296-15.82031,6.54296h-23.33984Z"/>
  </g>
  <g>
    <path class="st1" d="M450.03076,144.37305V41.74805c0-.27637-.22363-.5-.5-.5h-26.0625V5.23633h90.79736v36.01172h-27.62549c-.27637,0-.5.22363-.5.5v102.625h-36.10938Z"/>
    <path class="st0" d="M513.76514,5.73657v35.01172h-27.125c-.55228,0-1,.44772-1,1v102.12452h-35.10938V41.74829c0-.55228-.44772-1-1-1h-25.5625V5.73657h89.79688M514.76514,4.73657h-91.79688v37.01172h26.5625v103.12452h37.10938V41.74829h28.125V4.73657h0Z"/>
  </g>
  <g>
    <path class="st1" d="M528.16016,144.37305V5.23633h85.32812v36.01172h-48.81641c-.27637,0-.5.22363-.5.5v14.55078c0,.27637.22363.5.5.5h45.59375v36.01172h-45.59375c-.27637,0-.5.22363-.5.5v51.0625h-36.01172Z"/>
    <path class="st0" d="M612.98779,5.73657v35.01172h-48.31641c-.55225,0-1,.44772-1,1v14.55078c0,.55228.44775,1,1,1h45.09375v35.01124h-45.09375c-.55225,0-1,.44772-1,1v50.56249h-35.01172V5.73657h84.32812M613.98779,4.73657h-86.32812v140.13624h37.01172v-51.56249h46.09375v-37.01124h-46.09375v-14.55078h49.31641V4.73657h0Z"/>
  </g>
  <g>
    <path class="st1" d="M696.89258,146.42383c-19.56152,0-36.52832-7.04785-50.42773-20.94727s-20.94727-30.86621-20.94727-50.42773c0-19.62646,7.04785-36.62598,20.94727-50.52539s30.86621-20.94727,50.42773-20.94727c19.62695,0,36.62598,7.04785,50.52539,20.94727s20.94727,30.89893,20.94727,50.52539c0,19.56152-7.04785,36.52832-20.94727,50.42773s-30.89844,20.94727-50.52539,20.94727ZM696.89258,39.68555c-9.66309,0-18.06152,3.49902-24.96289,10.40039-6.90039,6.83643-10.40039,15.23584-10.40039,24.96289,0,9.66309,3.49902,18.06152,10.40039,24.96289s15.2998,10.40039,24.96289,10.40039c9.72852,0,18.12695-3.5,24.96484-10.40234,6.89941-6.89941,10.39844-15.29785,10.39844-24.96094,0-9.72705-3.5-18.12646-10.40234-24.96436-6.83398-6.89941-15.23242-10.39893-24.96094-10.39893Z"/>
    <path class="st0" d="M696.89209,4.07642c19.48914,0,36.36938,6.99842,50.17181,20.80084,13.80243,13.80244,20.80084,30.68268,20.80084,50.17182,0,19.42402-6.99841,36.27122-20.80084,50.07366-13.80243,13.80241-30.68268,20.80084-50.17181,20.80084-19.42432,0-36.27173-6.99843-50.07416-20.80084-13.80243-13.80244-20.80084-30.64964-20.80084-50.07366,0-19.48914,6.99841-36.36938,20.80084-50.17182,13.80243-13.80242,30.64984-20.80084,50.07416-20.80084M696.89209,110.91186c9.86646,0,18.38525-3.54958,25.31647-10.5468,6.99835-6.99834,10.54681-15.51588,10.54681-25.31598,0-9.86594-3.54956-18.38476-10.54346-25.31312-6.93457-7.00058-15.45337-10.55016-25.31982-10.55016-9.80048,0-18.31812,3.54846-25.31317,10.54348-7.00055,6.93502-10.55011,15.45384-10.55011,25.3198,0,9.80012,3.54846,18.31764,10.54681,25.31598,6.99835,6.99834,15.51599,10.5468,25.31647,10.5468M696.89209,3.07642c-19.79199,0-36.71875,7.03124-50.78125,21.09374-14.0625,14.0625-21.09375,31.02246-21.09375,50.87892,0,19.7915,7.03125,36.71826,21.09375,50.78076,14.0625,14.06249,30.98926,21.09374,50.78125,21.09374,19.85645,0,36.81641-7.03125,50.87891-21.09374,14.0625-14.0625,21.09375-30.98926,21.09375-50.78076,0-19.85646-7.03125-36.81642-21.09375-50.87892-14.0625-14.0625-31.02246-21.09374-50.87891-21.09374h0ZM696.89209,109.91186c-9.57031,0-17.77344-3.41796-24.60938-10.2539s-10.25391-15.03906-10.25391-24.60888c0-9.63428,3.41797-17.83742,10.25391-24.60938,6.83594-6.83594,15.03906-10.2539,24.60938-10.2539,9.63477,0,17.83789,3.41796,24.60938,10.2539,6.83594,6.77196,10.25391,14.9751,10.25391,24.60938,0,9.56982-3.41797,17.77294-10.25391,24.60888-6.77148,6.83594-14.97461,10.2539-24.60938,10.2539h0Z"/>
  </g>
  <g>
    <path class="st1" d="M786.13867,144.37305V5.23633h36.01172v102.625c0,.27637.22363.5.5.5h48.81641v36.01172h-85.32812Z"/>
    <path class="st0" d="M821.65088,5.73657v102.12452c0,.55228.44775,1,1,1h48.31641v35.01172h-84.32812V5.73657h35.01172M822.65088,4.73657h-37.01172v140.13624h86.32812v-37.01172h-49.31641V4.73657h0Z"/>
  </g>
  <g>
    <rect class="st1" x="884.67773" y="5.23633" width="36.01172" height="139.13672"/>
    <path class="st0" d="M920.18896,5.73657v138.13624h-35.01172V5.73657h35.01172M921.18896,4.73657h-37.01172v140.13624h37.01172V4.73657h0Z"/>
  </g>
  <g>
    <path class="st1" d="M1009.55273,146.42383c-19.56152,0-36.52832-7.04785-50.42773-20.94727s-20.94727-30.86621-20.94727-50.42773c0-19.62646,7.04785-36.62598,20.94727-50.52539s30.86621-20.94727,50.42773-20.94727c19.62695,0,36.62598,7.04785,50.52539,20.94727s20.94727,30.89893,20.94727,50.52539c0,19.56152-7.04785,36.52832-20.94727,50.42773s-30.89844,20.94727-50.52539,20.94727ZM1009.55273,39.68555c-9.66309,0-18.06152,3.49902-24.96289,10.40039-6.90039,6.83643-10.40039,15.23584-10.40039,24.96289,0,9.66309,3.49902,18.06152,10.40039,24.96289s15.2998,10.40039,24.96289,10.40039c9.72852,0,18.12695-3.5,24.96484-10.40234,6.89941-6.89941,10.39844-15.29785,10.39844-24.96094,0-9.72705-3.5-18.12646-10.40234-24.96436-6.83398-6.89941-15.23242-10.39893-24.96094-10.39893Z"/>
    <path class="st0" d="M1009.55322,4.07642c19.48914,0,36.36938,6.99842,50.17175,20.80084,13.80249,13.80244,20.8009,30.68268,20.8009,50.17182,0,19.42402-6.99841,36.27122-20.8009,50.07366-13.80237,13.80241-30.68262,20.80084-50.17175,20.80084-19.42432,0-36.27173-6.99843-50.07416-20.80084-13.80243-13.80244-20.80084-30.64964-20.80084-50.07366,0-19.48914,6.99841-36.36938,20.80084-50.17182,13.80243-13.80242,30.64984-20.80084,50.07416-20.80084M1009.55322,110.91186c9.86646,0,18.38525-3.54958,25.31653-10.5468,6.99829-6.99834,10.54675-15.51588,10.54675-25.31598,0-9.86594-3.54956-18.38476-10.54346-25.31312-6.93457-7.00058-15.45337-10.55016-25.31982-10.55016-9.80048,0-18.31812,3.54846-25.31317,10.54348-7.00055,6.93502-10.55011,15.45384-10.55011,25.3198,0,9.80012,3.54846,18.31764,10.54681,25.31598,6.99835,6.99834,15.51599,10.5468,25.31647,10.5468M1009.55322,3.07642c-19.79199,0-36.71875,7.03124-50.78125,21.09374-14.0625,14.0625-21.09375,31.02246-21.09375,50.87892,0,19.7915,7.03125,36.71826,21.09375,50.78076,14.0625,14.06249,30.98926,21.09374,50.78125,21.09374,19.85645,0,36.81641-7.03125,50.87891-21.09374,14.0625-14.0625,21.09375-30.98926,21.09375-50.78076,0-19.85646-7.03125-36.81642-21.09375-50.87892-14.0625-14.0625-31.02246-21.09374-50.87891-21.09374h0ZM1009.55322,109.91186c-9.57031,0-17.77344-3.41796-24.60938-10.2539s-10.25391-15.03906-10.25391-24.60888c0-9.63428,3.41797-17.83742,10.25391-24.60938,6.83594-6.83594,15.03906-10.2539,24.60938-10.2539,9.63477,0,17.83789,3.41796,24.60938,10.2539,6.83594,6.77196,10.25391,14.9751,10.25391,24.60938,0,9.56982-3.41797,17.77294-10.25391,24.60888-6.77148,6.83594-14.97461,10.2539-24.60938,10.2539h0Z"/>
  </g>
</svg>