<?xml version="1.0" encoding="UTF-8"?>
<svg id="Layer_1" xmlns="http://www.w3.org/2000/svg" version="1.1" viewBox="0 0 874 150">
  <!-- Generator: Adobe Illustrator 29.5.1, SVG Export Plug-In . SVG Version: 2.1.0 Build 141)  -->
  <defs>
    <style>
      .st0 {
        fill: #1d1d1b;
      }

      .st1 {
        fill: #fff;
      }
    </style>
  </defs>
  <g>
    <path class="st1" d="M104.61719,144.37305l-5.64258-15.68457c-.07178-.19824-.25977-.33105-.4707-.33105h-51.95312c-.20996,0-.39746.13086-.46973.32812l-5.73926,15.6875H2.04736L52.17578,5.23633h40.70312l50.12842,139.13672h-38.39014ZM72.52734,56.18945c-.21045,0-.39844.13184-.47021.32959l-12.69531,35.05908c-.05518.15332-.03271.32324.06104.45703.09326.13379.24609.21289.40918.21289h25.39062c.16309,0,.31592-.0791.40918-.21289.09375-.13379.11621-.30371.06104-.45703l-12.69531-35.05908c-.07178-.19775-.25977-.32959-.47021-.32959Z"/>
    <path class="st0" d="M92.52782,5.73657l49.76772,138.13624h-37.32693l-5.52375-15.35414c-.14278-.39685-.5192-.66148-.94096-.66148h-51.95312c-.41978,0-.7949.26218-.93912.65643l-5.61922,15.35919H2.75914L52.52686,5.73657h40.00096M59.83202,92.74781h25.39064c.32598,0,.6315-.15888.81868-.42577.1872-.26685.23256-.60822.12156-.91472l-12.69532-35.05812c-.14334-.39584-.51924-.65952-.94024-.65952s-.7969.26368-.94024.65952l-12.69532,35.05812c-.111.3065-.06564.64787.12156.91472.18718.26688.4927.42577.81868.42577M93.23046,4.73657h-41.40624L1.33594,144.8728h39.35546l5.85938-16.01561h51.95312l5.76172,16.01561h39.45312L93.23046,4.73657h0ZM59.83202,91.74781l12.69532-35.05812,12.69532,35.05812h-25.39064Z"/>
  </g>
  <g>
    <path class="st1" d="M153.02783,144.37305V5.23633h67.27295c12.23926,0,22.83154,4.38623,31.48242,13.03711,8.71582,8.7168,13.13477,19.3418,13.13477,31.58008,0,7.2417-1.68945,14.1626-5.02197,20.57031-.09766.18799-.06592.41797.0791.57275,7.88086,8.39502,11.87646,18.46533,11.87646,29.93115,0,11.33984-3.93066,21.3125-11.68262,29.63965-7.68799,8.26465-17.30273,12.87695-28.57666,13.70898-.09766.00781-.18652.04199-.26025.09668h-78.3042ZM189.53955,87.14648c-.27637,0-.5.22363-.5.5v20.21484c0,.27637.22363.5.5.5h38.8667c2.48828,0,4.48877-1.04297,5.9458-3.10059,2.15381-2.03516,3.24561-4.57715,3.24561-7.55566,0-2.92383-1.03516-5.44141-3.07617-7.48242s-4.55859-3.07617-7.48242-3.07617h-37.49951ZM189.53955,41.24805c-.27637,0-.5.22363-.5.5v20.11719c0,.27637.22363.5.5.5h30.76123c2.86279,0,5.34912-1.06982,7.39062-3.17969,2.03516-2.03516,3.07031-4.52002,3.07031-7.37891,0-2.92383-1.03516-5.44141-3.07617-7.48242s-4.52588-3.07617-7.38477-3.07617h-30.76123Z"/>
    <path class="st0" d="M220.30078,5.73657c12.10193,0,22.57518,4.33706,31.1288,12.89066,8.61845,8.61944,12.98839,19.12556,12.98839,31.22654,0,7.16008-1.67056,14.00324-4.96536,20.33944-.19592.37676-.13248.83618.15817,1.14578,7.79062,8.29842,11.74078,18.25342,11.74078,29.5885,0,11.20948-3.88544,21.06714-11.54858,29.29938-7.59938,8.1693-17.10326,12.7285-28.24768,13.55099-.12778.00943-.24843.04257-.35788.09494h-77.66959V5.73657h66.77295M189.53955,62.86549h30.76123c3.00317,0,5.61061-1.12104,7.73836-3.32026,2.13834-2.13834,3.22258-4.7419,3.22258-7.73834,0-3.06126-1.08424-5.69766-3.22258-7.836-2.13834-2.13836-4.74193-3.2226-7.73836-3.2226h-30.76123c-.55228,0-1,.44772-1,1v20.1172c0,.55228.44772,1,1,1M189.53955,108.86108h38.8667c2.64398,0,4.77147-1.1003,6.32532-3.27101,2.23358-2.12808,3.36609-4.78059,3.36609-7.88525,0-3.06126-1.08424-5.69766-3.22258-7.83602-2.13835-2.13834-4.77478-3.22256-7.83601-3.22256h-37.49951c-.55228,0-1,.44772-1,1v20.21484c0,.55228.44772,1,1,1M220.30078,4.73657h-67.77295v140.13624h79.10106v-.09766c11.459-.8457,21.09377-5.46877,28.90627-13.86717,7.87695-8.46193,11.81641-18.45705,11.81641-29.98048,0-11.65332-4.00391-21.74316-12.01172-30.27294,3.38477-6.50928,5.07812-13.44288,5.07812-20.80078,0-12.43458-4.42773-23.0791-13.28125-31.9336-8.78906-8.78906-19.40038-13.1836-31.83594-13.1836h0ZM189.53955,61.86549v-20.1172h30.76123c2.73438,0,5.07811.97656,7.03125,2.9297,1.95312,1.95312,2.92969,4.33056,2.92969,7.1289,0,2.73438-.97656,5.07812-2.92969,7.03124-1.95314,2.01856-4.29688,3.02736-7.03125,3.02736h-30.76123ZM189.53955,107.86108v-20.21484h37.49951c2.79883,0,5.17578.97656,7.12892,2.92968,1.95311,1.95312,2.92967,4.33106,2.92967,7.1289,0,2.86622-1.04102,5.27344-3.125,7.22656-1.36717,1.95314-3.22266,2.9297-5.56641,2.9297h-38.8667Z"/>
  </g>
  <g>
    <path class="st1" d="M355.2793,146.42383c-19.56152,0-36.52832-7.04785-50.42773-20.94727s-20.94727-30.86621-20.94727-50.42773c0-19.62646,7.04785-36.62598,20.94727-50.52539s30.86621-20.94727,50.42773-20.94727c19.62646,0,36.62598,7.04785,50.52539,20.94727s20.94727,30.89893,20.94727,50.52539c0,19.56152-7.04785,36.52832-20.94727,50.42773s-30.89893,20.94727-50.52539,20.94727ZM355.2793,39.68555c-9.66309,0-18.06152,3.49902-24.96289,10.40039-6.90088,6.83643-10.40039,15.23584-10.40039,24.96289,0,9.66309,3.49902,18.06152,10.40039,24.96289s15.2998,10.40039,24.96289,10.40039c9.72803,0,18.12744-3.5,24.96436-10.40234,6.8999-6.89941,10.39893-15.29785,10.39893-24.96094,0-9.72705-3.49951-18.12646-10.40186-24.96436-6.83398-6.89941-15.2334-10.39893-24.96143-10.39893Z"/>
    <path class="st0" d="M355.2793,4.07642c19.48914,0,36.36935,6.99842,50.17181,20.80084,13.80243,13.80244,20.80084,30.68268,20.80084,50.17182,0,19.42402-6.99841,36.27122-20.80084,50.07366-13.80246,13.80241-30.68268,20.80084-50.17181,20.80084-19.42435,0-36.2717-6.99843-50.07416-20.80084-13.80243-13.80244-20.80084-30.64964-20.80084-50.07366,0-19.48914,6.99841-36.36938,20.80084-50.17182,13.80246-13.80242,30.64981-20.80084,50.07416-20.80084M355.2793,110.91186c9.86646,0,18.38525-3.54958,25.31647-10.5468,6.99835-6.99834,10.54681-15.51588,10.54681-25.31598,0-9.86594-3.54956-18.38476-10.54349-25.31312-6.93454-7.00058-15.45334-10.55016-25.31979-10.55016-9.80045,0-18.31815,3.54846-25.31314,10.54348-7.00055,6.93502-10.55014,15.45384-10.55014,25.3198,0,9.80012,3.54846,18.31764,10.54681,25.31598,6.99832,6.99834,15.51602,10.5468,25.31647,10.5468M355.2793,3.07642c-19.79199,0-36.71875,7.03124-50.78125,21.09374-14.0625,14.0625-21.09375,31.02246-21.09375,50.87892,0,19.7915,7.03125,36.71826,21.09375,50.78076,14.0625,14.06249,30.98926,21.09374,50.78125,21.09374,19.85645,0,36.81641-7.03125,50.87891-21.09374,14.0625-14.0625,21.09375-30.98926,21.09375-50.78076,0-19.85646-7.03125-36.81642-21.09375-50.87892-14.0625-14.0625-31.02246-21.09374-50.87891-21.09374h0ZM355.2793,109.91186c-9.57031,0-17.77344-3.41796-24.60938-10.2539s-10.25391-15.03906-10.25391-24.60888c0-9.63428,3.41797-17.83742,10.25391-24.60938,6.83594-6.83594,15.03906-10.2539,24.60938-10.2539,9.63477,0,17.83789,3.41796,24.60938,10.2539,6.83594,6.77196,10.25391,14.9751,10.25391,24.60938,0,9.56982-3.41797,17.77294-10.25391,24.60888-6.77148,6.83594-14.97461,10.2539-24.60938,10.2539h0Z"/>
  </g>
  <g>
    <path class="st1" d="M498.92578,146.22852c-15.21973,0-28.37451-5.4707-39.09863-16.25879-10.79004-10.79004-16.26074-23.94531-16.26074-39.10059V5.23633h36.01172v85.63281c0,5.25684,1.92188,9.84375,5.71289,13.63477,3.72412,3.72559,8.31152,5.61523,13.63477,5.61523,5.32227,0,9.91016-1.88965,13.63477-5.61523,3.79102-3.79102,5.71289-8.37793,5.71289-13.63477V5.23633h36.01172v85.63281c0,15.15527-5.4707,28.31055-16.25977,39.09961-10.72559,10.78906-23.88086,16.25977-39.09961,16.25977Z"/>
    <path class="st0" d="M553.78516,5.73658v85.13232c0,15.01792-5.42133,28.05396-16.11548,38.7481-10.62762,10.69066-23.66296,16.11125-38.7439,16.11125-15.08191,0-28.11725-5.42059-38.74603-16.11333-10.69202-10.69207-16.11334-23.7281-16.11334-38.74603V5.73658h35.01172v85.13232c0,5.39404,1.97134,10.1004,5.85913,13.98816,3.8212,3.82328,8.52765,5.76184,13.98853,5.76184,5.45987,0,10.16626-1.93855,13.98834-5.76167,3.88794-3.88795,5.85931-8.59431,5.85931-13.98833V5.73658h35.01172M554.78516,4.73658h-37.01172v86.13232c0,5.14354-1.85547,9.5703-5.56641,13.28123-3.64648,3.64746-8.07324,5.46877-13.28125,5.46877-5.20898,0-9.63574-1.8213-13.28125-5.46877-3.71094-3.71094-5.56641-8.1377-5.56641-13.28123V4.73658h-37.01172v86.13232c0,15.3662,5.46875,28.51562,16.40625,39.45312,10.87207,10.9375,24.02344,16.40623,39.45312,16.40623s28.58008-5.46873,39.45312-16.40623c10.9375-10.9375,16.40625-24.08692,16.40625-39.45312V4.73658h0Z"/>
  </g>
  <g>
    <path class="st1" d="M593.57422,144.37305V41.74805c0-.27637-.22363-.5-.5-.5h-26.0625V5.23633h90.79688v36.01172h-27.625c-.27637,0-.5.22363-.5.5v102.625h-36.10938Z"/>
    <path class="st0" d="M657.30859,5.73657v35.01172h-27.125c-.55231,0-1,.44772-1,1v102.12452h-35.10938V41.74829c0-.55228-.44769-1-1-1h-25.5625V5.73657h89.79688M658.30859,4.73657h-91.79688v37.01172h26.5625v103.12452h37.10938V41.74829h28.125V4.73657h0Z"/>
  </g>
  <g>
    <path class="st1" d="M808.40625,138.2207c-4.79199,0-8.88184-1.5957-12.15332-4.74316-3.26758-3.1416-4.9248-7.06152-4.9248-11.65137,0-2.52637.49609-4.99121,1.47461-7.32617.97949-2.33691,2.40527-4.45117,4.23828-6.28516l13.76953-13.76953c.14258-.14258.18555-.3584.1084-.54492s-.25977-.30859-.46191-.30859h-90.42969c-4.9834,0-9.25098-1.72559-12.68555-5.12891-3.43262-3.40137-5.17383-7.7168-5.17383-12.82812,0-4.98096,1.74121-9.24805,5.17578-12.68359,3.43457-3.43457,7.70215-5.17578,12.68359-5.17578h90.42969c.19629,0,.37402-.11426.45508-.29297.08105-.17822.05078-.3877-.07812-.53516l-13.76953-15.82031c-1.91699-2.04492-3.36328-4.18164-4.3125-6.36523-.94531-2.17236-1.42383-4.35596-1.42383-6.49023,0-4.06299,1.70117-7.6333,5.05664-10.6123,3.37402-2.99463,7.41797-4.5127,12.02148-4.5127,2.58203,0,5.05762.54297,7.35742,1.61328,2.30176,1.07422,4.2998,2.57617,5.93652,4.46436l50.29395,56.41113-50.28906,56.50342c-1.7666,1.95508-3.81445,3.47559-6.08496,4.5166-2.26758,1.03906-4.69434,1.56543-7.21387,1.56543Z"/>
    <path class="st0" d="M808.40625,13.64674c2.50854,0,4.91296.52712,7.14575,1.56645,2.23773,1.04345,4.17926,2.50317,5.77972,4.34902l49.9931,56.07335-49.98877,56.1646c-1.72278,1.90733-3.71613,3.38768-5.92456,4.3999-2.20117,1.00885-4.55804,1.52037-7.00525,1.52037-4.65875,0-8.63116-1.54883-11.80695-4.60371-3.21051-3.0864-4.77118-6.77966-4.77118-11.2908,0-2.45979.48315-4.85966,1.43597-7.13303.95386-2.27619,2.34363-4.33691,4.13049-6.12471l13.76953-13.76955c.28601-.28598.37158-.7161.2168-1.08979-.15479-.37366-.51941-.61731-.92389-.61731h-90.42969c-4.84644,0-8.99597-1.67679-12.33331-4.98386-3.33508-3.30381-5.02606-7.50024-5.02606-12.47269,0-4.84389,1.69214-8.99231,5.02936-12.33,3.33728-3.33724,7.48566-5.02936,12.33002-5.02936h90.42969c.39191,0,.74768-.22893.9101-.5856s.1015-.77531-.15576-1.07093l-13.79437-15.84779c-1.86511-1.98914-3.28052-4.07812-4.20697-6.20888-.91693-2.109-1.3819-4.2255-1.3819-6.29071,0-3.9689,1.59906-7.31795,4.88849-10.23848,3.27893-2.91069,7.21191-4.38652,11.68964-4.38652M808.40625,12.64674c-4.75293,0-8.87109,1.54736-12.35352,4.63867-3.4834,3.09276-5.22461,6.75488-5.22461,10.98633,0,2.21386.48828,4.44336,1.46484,6.68945s2.44141,4.41112,4.39453,6.49414l13.76953,15.82031h-90.42969c-5.14355,0-9.48926,1.7744-13.03711,5.32226-3.54883,3.5493-5.32227,7.89502-5.32227,13.0371,0,5.27295,1.77344,9.6675,5.32227,13.18311,3.54785,3.51562,7.89355,5.27343,13.03711,5.27343h90.42969l-13.76953,13.76955c-1.88867,1.88965-3.33691,4.03807-4.3457,6.44531-1.00977,2.40916-1.51367,4.91698-1.51367,7.51952,0,4.75293,1.69238,8.75684,5.07812,12.01172,3.38477,3.25586,7.55176,4.8828,12.5,4.8828,2.60352,0,5.07812-.53709,7.42188-1.6113,2.34375-1.07425,4.42676-2.62012,6.25-4.6387l50.58594-56.83544-50.58594-56.73827c-1.69336-1.95314-3.72754-3.48195-6.10352-4.58986-2.37695-1.10643-4.89941-1.66014-7.56836-1.66014h0Z"/>
  </g>
</svg>