<?xml version="1.0" encoding="UTF-8"?>
<svg id="Layer_1" xmlns="http://www.w3.org/2000/svg" version="1.1" viewBox="0 0 1101 150">
  <!-- Generator: Adobe Illustrator 29.5.1, SVG Export Plug-In . SVG Version: 2.1.0 Build 141)  -->
  <defs>
    <style>
      .st0 {
        fill: #1d1d1b;
      }

      .st1 {
        fill: #fff;
      }
    </style>
  </defs>
  <g>
    <path class="st1" d="M73.79346,146.42383c-19.56152,0-36.52832-7.04785-50.42773-20.94727S2.41846,94.61035,2.41846,75.04883c0-19.62646,7.04785-36.62598,20.94727-50.52539S54.23193,3.57617,73.79346,3.57617c17.77539,0,33.56104,5.9502,46.92676,17.68652l-25.58398,25.58398c-6.29248-4.75195-13.4707-7.16113-21.34277-7.16113-9.66309,0-18.06152,3.49902-24.96289,10.40039-6.90088,6.83643-10.40039,15.23584-10.40039,24.96289,0,9.66309,3.49902,18.06152,10.40039,24.96289s15.2998,10.40039,24.96289,10.40039c7.87402,0,15.05225-2.44043,21.34473-7.25684l25.58203,25.58203c-13.36572,11.73633-29.15137,17.68652-46.92676,17.68652Z"/>
    <path class="st0" d="M73.79346,4.07642c17.47196,0,33.00859,5.79018,46.19462,17.21148l-24.89961,24.89961c-6.29683-4.64683-13.45648-7.00171-21.29501-7.00171-9.80046,0-18.31814,3.54846-25.31316,10.54348-7.00054,6.93502-10.55012,15.45384-10.55012,25.3198,0,9.80012,3.54846,18.31764,10.5468,25.31598,6.99834,6.99834,15.51602,10.5468,25.31648,10.5468,7.84075,0,15.00184-2.38645,21.299-7.09538l24.89562,24.89561c-13.18603,11.4213-28.72266,17.21149-46.19462,17.21149-19.42434,0-36.27172-6.99843-50.07416-20.80084-13.80242-13.80244-20.80084-30.64964-20.80084-50.07366,0-19.48914,6.99842-36.36938,20.80084-50.17182,13.80244-13.80242,30.64982-20.80084,50.07416-20.80084M73.79346,3.07642c-19.792,0-36.71876,7.03124-50.78126,21.09374C8.9497,38.23266,1.91846,55.19262,1.91846,75.04908c0,19.7915,7.03124,36.71826,21.09374,50.78076,14.0625,14.06249,30.98926,21.09374,50.78126,21.09374,18.16405,0,34.04834-6.05469,47.65623-18.16406l-26.26952-26.26952c-6.31544,4.94824-13.44434,7.42186-21.38672,7.42186-9.57032,0-17.77344-3.41796-24.60938-10.2539s-10.2539-15.03906-10.2539-24.60888c0-9.63428,3.41796-17.83742,10.2539-24.60938,6.83594-6.83594,15.03906-10.2539,24.60938-10.2539,7.94238,0,15.07127,2.4414,21.38672,7.3242l26.26952-26.26952c-13.60789-12.10938-29.49218-18.16406-47.65623-18.16406h0Z"/>
  </g>
  <g>
    <path class="st1" d="M197.47705,146.42383c-19.56201,0-36.52881-7.04785-50.42822-20.94727s-20.94727-30.86621-20.94727-50.42773c0-19.62646,7.04785-36.62598,20.94727-50.52539S177.91504,3.57617,197.47705,3.57617c19.62646,0,36.62598,7.04785,50.52539,20.94727,13.89941,13.8999,20.94727,30.89893,20.94727,50.52539,0,19.56152-7.04785,36.52832-20.94727,50.42773s-30.89893,20.94727-50.52539,20.94727ZM197.47705,39.68555c-9.66357,0-18.06201,3.49902-24.96338,10.40039-6.90088,6.83643-10.40039,15.23584-10.40039,24.96289,0,9.66309,3.49902,18.06152,10.40039,24.96289s15.2998,10.40039,24.96338,10.40039c9.72803,0,18.12744-3.5,24.96484-10.40234,6.89941-6.89941,10.39844-15.29785,10.39844-24.96094,0-9.72705-3.49951-18.12646-10.40186-24.96436-6.83398-6.89941-15.2334-10.39893-24.96143-10.39893Z"/>
    <path class="st0" d="M197.47705,4.07642c19.48915,0,36.36937,6.99842,50.1718,20.80084,13.80244,13.80246,20.80086,30.68268,20.80086,50.17182,0,19.424-6.99841,36.2712-20.80086,50.07366-13.80243,13.80241-30.68265,20.80084-50.1718,20.80084-19.42465,0-36.2722-6.99843-50.07463-20.80084-13.80244-13.80246-20.80087-30.64966-20.80087-50.07366,0-19.48914,6.99842-36.36936,20.80087-50.17182,13.80243-13.80242,30.64998-20.80084,50.07463-20.80084M197.47705,110.91186c9.86644,0,18.38527-3.54958,25.31648-10.5468,6.99834-6.99836,10.5468-15.51588,10.5468-25.31598,0-9.86594-3.54958-18.38476-10.54346-25.31314-6.93456-7.00056-15.45338-10.55014-25.31982-10.55014-9.80075,0-18.31862,3.54846-25.31363,10.54348-7.00056,6.93504-10.55014,15.45387-10.55014,25.3198,0,9.8001,3.54845,18.31764,10.54681,25.31598,6.99834,6.99834,15.5162,10.5468,25.31696,10.5468M197.47705,3.07642c-19.79248,0-36.71924,7.03124-50.78174,21.09374-14.0625,14.0625-21.09376,31.02246-21.09376,50.87892,0,19.7915,7.03126,36.71826,21.09376,50.78076,14.0625,14.06249,30.98926,21.09374,50.78174,21.09374,19.85547,0,36.81641-7.03125,50.87891-21.09374,14.0625-14.0625,21.09375-30.98926,21.09375-50.78076,0-19.85646-7.03125-36.81642-21.09375-50.87892-14.0625-14.0625-31.02344-21.09374-50.87891-21.09374h0ZM197.47705,109.91186c-9.5708,0-17.77391-3.41796-24.60986-10.2539-6.83594-6.83594-10.25391-15.03906-10.25391-24.60888,0-9.63428,3.41797-17.83742,10.25391-24.60938,6.83595-6.83594,15.03906-10.2539,24.60986-10.2539,9.63477,0,17.83789,3.41796,24.60939,10.2539,6.83591,6.77196,10.25389,14.9751,10.25389,24.60938,0,9.56982-3.41798,17.77294-10.25389,24.60888-6.7715,6.83594-14.97462,10.2539-24.60939,10.2539h0Z"/>
  </g>
  <g>
    <path class="st1" d="M363.38867,144.37305l-39.70605-79.99561c-.08545-.17285-.26123-.27783-.44775-.27783-.0376,0-.07617.00439-.11426.01318-.22607.05322-.38574.25488-.38574.48682v79.77344h-36.01172V5.23633h47.92041l48.29932,97.47559c.08594.17383.26123.27832.44824.27832.0376,0,.07568-.00391.11377-.0127.22656-.05371.38623-.25488.38623-.4873V5.23633h36.10938v139.13672h-56.61182Z"/>
    <path class="st0" d="M419.50049,5.73657v138.13624h-55.80182l-39.56808-79.71755c-.17163-.34576-.52231-.5555-.89548-.5555-.07571,0-.15234.00863-.22858.02651-.45206.10602-.77167.50926-.77167.97358v79.27296h-35.01172V5.73657h47.10995l48.16199,97.1974c.17151.34612.52237.55612.89578.55612.07556,0,.15213-.00861.22824-.02644.45224-.1059.772-.5092.772-.97366V5.73657h35.10938M420.50049,4.73657h-37.10938v97.75342L334.95361,4.73657h-48.73047v140.13624h37.01172v-80.27296l39.84375,80.27296h57.42188V4.73657h0Z"/>
  </g>
  <g>
    <path class="st1" d="M460.41748,144.37305V41.74805c0-.27637-.22363-.5-.5-.5h-26.0625V5.23633h90.79736v36.01172h-27.62549c-.27637,0-.5.22363-.5.5v102.625h-36.10938Z"/>
    <path class="st0" d="M524.15186,5.73657v35.01172h-27.125c-.55228,0-1,.44772-1,1v102.12452h-35.10938V41.74829c0-.55228-.44772-1-1-1h-25.5625V5.73657h89.79688M525.15186,4.73657h-91.79688v37.01172h26.5625v103.12452h37.10938V41.74829h28.125V4.73657h0Z"/>
  </g>
  <g>
    <path class="st1" d="M623.0957,144.37305l-5.64258-15.68457c-.07129-.19824-.25977-.33105-.4707-.33105h-51.95312c-.20996,0-.39746.13086-.46973.32812l-5.73926,15.6875h-38.29395L570.6543,5.23633h40.70312l50.12793,139.13672h-38.38965ZM591.00586,56.18945c-.21094,0-.39844.13184-.46973.32959l-12.69531,35.05908c-.05566.15332-.0332.32324.06055.45703s.24609.21289.40918.21289h25.39062c.16309,0,.31543-.0791.40918-.21289s.11621-.30371.06055-.45703l-12.69531-35.05908c-.07129-.19775-.25879-.32959-.46973-.32959Z"/>
    <path class="st0" d="M611.00586,5.73657l49.7677,138.13624h-37.3269l-5.52374-15.35414c-.14282-.39685-.51923-.66148-.94098-.66148h-51.95312c-.4198,0-.79492.26218-.93915.65643l-5.6192,15.35919h-37.23328L571.00488,5.73657h40.00098M578.31006,92.74781h25.39062c.32599,0,.63153-.15888.81866-.42577.18719-.26685.2326-.60822.12158-.91472l-12.69531-35.05812c-.14337-.39584-.51923-.65952-.94025-.65952s-.79688.26368-.94025.65952l-12.69531,35.05812c-.11102.3065-.06561.64787.12158.91472.18713.26688.49268.42577.81866.42577M611.7085,4.73657h-41.40625l-50.48828,140.13624h39.35547l5.85938-16.01561h51.95312l5.76172,16.01561h39.45312L611.7085,4.73657h0ZM578.31006,91.74781l12.69531-35.05812,12.69531,35.05812h-25.39062Z"/>
  </g>
  <g>
    <path class="st1" d="M734.28125,146.42383c-19.56152,0-36.52832-7.04785-50.42773-20.94727s-20.94727-30.86621-20.94727-50.42773c0-19.62646,7.04785-36.62598,20.94727-50.52539s30.86621-20.94727,50.42773-20.94727c17.77539,0,33.56152,5.9502,46.92676,17.68652l-25.58398,25.58398c-6.29297-4.75195-13.47168-7.16113-21.34277-7.16113-9.66309,0-18.06152,3.49902-24.96289,10.40039-6.90039,6.83643-10.40039,15.23584-10.40039,24.96289,0,9.66309,3.49902,18.06152,10.40039,24.96289s15.2998,10.40039,24.96289,10.40039c7.87305,0,15.05176-2.44141,21.34473-7.25684l25.58203,25.58203c-13.36523,11.73633-29.15137,17.68652-46.92676,17.68652Z"/>
    <path class="st0" d="M734.28076,4.07642c17.47241,0,33.00903,5.79017,46.19464,17.21147l-24.8996,24.89962c-6.29688-4.64683-13.45648-7.00171-21.29504-7.00171-9.80048,0-18.31812,3.54846-25.31317,10.54348-7.00055,6.93502-10.55011,15.45384-10.55011,25.3198,0,9.80012,3.54846,18.31764,10.54681,25.31598,6.99835,6.99834,15.51599,10.5468,25.31647,10.5468,7.84076,0,15.00183-2.38645,21.29901-7.09538l24.89563,24.89563c-13.18561,11.4213-28.72223,17.21147-46.19464,17.21147-19.42432,0-36.27173-6.99843-50.07416-20.80084-13.80243-13.80244-20.80084-30.64964-20.80084-50.07366,0-19.48914,6.99841-36.36938,20.80084-50.17182,13.80243-13.80242,30.64984-20.80084,50.07416-20.80084M734.28076,3.07642c-19.79199,0-36.71875,7.03124-50.78125,21.09374-14.0625,14.0625-21.09375,31.02246-21.09375,50.87892,0,19.7915,7.03125,36.71826,21.09375,50.78076,14.0625,14.06249,30.98926,21.09374,50.78125,21.09374,18.16406,0,34.04883-6.05469,47.65625-18.16406l-26.26953-26.26952c-6.31543,4.94824-13.44434,7.42186-21.38672,7.42186-9.57031,0-17.77344-3.41796-24.60938-10.2539s-10.25391-15.03906-10.25391-24.60888c0-9.63428,3.41797-17.83742,10.25391-24.60938,6.83594-6.83594,15.03906-10.2539,24.60938-10.2539,7.94238,0,15.07129,2.4414,21.38672,7.3242l26.26953-26.26952c-13.60742-12.10938-29.49219-18.16406-47.65625-18.16406h0Z"/>
  </g>
  <g>
    <path class="st1" d="M819.99219,144.37305V41.74805c0-.27637-.22363-.5-.5-.5h-26.0625V5.23633h90.79688v36.01172h-27.625c-.27637,0-.5.22363-.5.5v102.625h-36.10938Z"/>
    <path class="st0" d="M883.72607,5.73657v35.01172h-27.125c-.55231,0-1,.44772-1,1v102.12452h-35.10938V41.74829c0-.55228-.44769-1-1-1h-25.5625V5.73657h89.79688M884.72607,4.73657h-91.79688v37.01172h26.5625v103.12452h37.10938V41.74829h28.125V4.73657h0Z"/>
  </g>
  <g>
    <path class="st1" d="M1034.82422,138.2207c-4.79199,0-8.88184-1.5957-12.15332-4.74316-3.26758-3.14062-4.9248-7.06055-4.9248-11.65137,0-2.52637.49609-4.99121,1.47461-7.32617.97754-2.33496,2.40332-4.44922,4.23828-6.28516l13.76953-13.76953c.14258-.14258.18555-.3584.1084-.54492s-.25977-.30859-.46191-.30859h-90.42969c-4.98438,0-9.25195-1.72559-12.68555-5.12891-3.43262-3.40137-5.17383-7.7168-5.17383-12.82812,0-4.98096,1.74121-9.24805,5.17578-12.68359,3.43359-3.43457,7.70117-5.17578,12.68359-5.17578h90.42969c.19629,0,.37402-.11426.45508-.29297.08105-.17822.05078-.3877-.07812-.53516l-13.76953-15.82031c-1.91699-2.04492-3.36328-4.18164-4.3125-6.36523-.94531-2.17236-1.42383-4.35596-1.42383-6.49023,0-4.06348,1.70117-7.63428,5.05664-10.6123,3.37402-2.99463,7.41797-4.5127,12.02148-4.5127,2.58203,0,5.05762.54297,7.35742,1.61328,2.30273,1.07471,4.30078,2.57715,5.93652,4.46436l50.29395,56.41113-50.28906,56.50342c-1.76855,1.95605-3.81641,3.47656-6.08496,4.5166-2.26758,1.03906-4.69434,1.56543-7.21387,1.56543Z"/>
    <path class="st0" d="M1034.82373,13.64674c2.50854,0,4.91296.52712,7.14575,1.56645,2.23779,1.04345,4.1792,2.50317,5.77979,4.34902l49.99304,56.07335-49.98877,56.1646c-1.72278,1.90733-3.71606,3.38768-5.92456,4.3999-2.20117,1.00885-4.55811,1.52037-7.00525,1.52037-4.65881,0-8.6311-1.54883-11.80695-4.60371-3.21051-3.0864-4.77118-6.77966-4.77118-11.2908,0-2.45979.48315-4.85966,1.43597-7.13303.95386-2.27619,2.34363-4.33691,4.13049-6.12471l13.76959-13.76955c.28601-.28598.37158-.7161.21667-1.08979-.15479-.37366-.51941-.61731-.92383-.61731h-90.42969c-4.84644,0-8.99597-1.67679-12.33331-4.98386-3.33508-3.30381-5.02606-7.50024-5.02606-12.47269,0-4.84389,1.69214-8.99231,5.02936-12.33,3.33728-3.33724,7.48566-5.02936,12.33002-5.02936h90.42969c.39197,0,.74768-.22893.91016-.5856.16235-.35667.10144-.77531-.15588-1.07093l-13.79431-15.84779c-1.86511-1.98914-3.28052-4.07812-4.20697-6.20888-.91693-2.109-1.3819-4.2255-1.3819-6.29071,0-3.9689,1.59906-7.31795,4.88849-10.23848,3.27887-2.91069,7.21185-4.38652,11.68964-4.38652M1034.82373,12.64674c-4.75293,0-8.87109,1.54736-12.35352,4.63867-3.4834,3.09276-5.22461,6.75488-5.22461,10.98633,0,2.21386.48828,4.44336,1.46484,6.68945s2.44141,4.41112,4.39453,6.49414l13.76953,15.82031h-90.42969c-5.14355,0-9.48926,1.7744-13.03711,5.32226-3.54883,3.5493-5.32227,7.89502-5.32227,13.0371,0,5.27295,1.77344,9.6675,5.32227,13.18311,3.54785,3.51562,7.89355,5.27343,13.03711,5.27343h90.42969l-13.76953,13.76955c-1.88867,1.88965-3.33691,4.03807-4.3457,6.44531-1.00977,2.40916-1.51367,4.91698-1.51367,7.51952,0,4.75293,1.69238,8.75684,5.07812,12.01172,3.38477,3.25586,7.55176,4.8828,12.5,4.8828,2.60352,0,5.07812-.53709,7.42188-1.6113,2.34375-1.07425,4.42676-2.62012,6.25-4.6387l50.58594-56.83544-50.58594-56.73827c-1.69336-1.95314-3.72754-3.48195-6.10352-4.58986-2.37695-1.10643-4.89941-1.66014-7.56836-1.66014h0Z"/>
  </g>
</svg>