<?xml version="1.0" encoding="UTF-8"?>
<svg id="Layer_1" xmlns="http://www.w3.org/2000/svg" version="1.1" viewBox="0 0 812 150">
  <!-- Generator: Adobe Illustrator 29.5.1, SVG Export Plug-In . SVG Version: 2.1.0 Build 141)  -->
  <defs>
    <style>
      .st0 {
        fill: #1d1d1b;
      }

      .st1 {
        fill: #fff;
      }
    </style>
  </defs>
  <g>
    <path class="st1" d="M52.3418,146.57031c-18.40137-.00391-33.85986-6.36816-45.9541-18.91602l26.13428-24.80469c3.31152,3.3125,7.41162,5.60449,12.19482,6.81445,2.39209.61426,4.32861.9248,5.75391.9248.27148,0,.52539-.01074.76221-.03223,3.99072-.26465,6.95264-1.26172,8.79004-2.96289,1.40674-1.2666,2.05371-3.43652,1.91748-6.44434-.146-1.59668-.77246-2.80078-1.86377-3.60352-2.69873-1.82129-7.42383-3.34863-14.46094-4.67773l-17.62061-5.45508C11.9707,80.00293,3.29541,67.75879,2.27197,51.04346c-.76904-12.24072,3-23.125,11.20264-32.35205C21.55127,9.46143,31.85059,4.39307,44.08936,3.62402c1.26758-.09814,2.56445-.14795,3.8623-.14795,4.65137,0,9.60986.63672,14.7373,1.89258,11.53369,2.85156,21.51855,8.59521,29.68408,17.07422l-26.22754,24.80176c-5.01123-5.14648-10.9707-7.75537-17.72021-7.75537-.54883,0-1.10254.0166-1.66309.05078-2.60498.20557-4.72217,1.21436-6.30127,3-1.58203,1.78857-2.31396,3.91406-2.17529,6.31689.21094,4.00635,4.75146,6.80957,13.88086,8.56787l18.02832,4.97119c17.31152,7.03271,26.63623,19.30615,27.66113,36.4624.89697,14.42383-3.61621,26.31445-13.41406,35.34375-8.00928,7.30371-18.81006,11.46582-32.1001,12.36816Z"/>
    <path class="st0" d="M47.9537,3.9763c4.61072,0,9.52842.63186,14.6143,1.87752,11.27644,2.7882,21.05944,8.36251,29.09315,16.57418l-25.50374,24.11767c-5.03612-5.01504-10.99657-7.55651-17.73067-7.55651-.55682,0-1.12708.01748-1.71298.05324-2.72956.2154-4.95934,1.28072-6.62734,3.16634-1.6727,1.8907-2.44658,4.13724-2.30044,6.67218.22453,4.2658,4.88539,7.21894,14.24723,9.02739l17.97215,4.95447c17.13835,6.97548,26.34023,19.09552,27.35148,36.02719.88728,14.26514-3.57194,26.02224-13.24994,34.94118-7.9225,7.22432-18.61541,11.342-31.78191,12.23891-18.07541-.00771-33.28581-6.19789-45.2265-18.40199l25.4176-24.12362c3.31353,3.19373,7.37183,5.41382,12.07476,6.60363,2.46838.63316,4.39166.94094,5.87976.94094.28454,0,.55638-.01174.78244-.03286,4.12104-.27302,7.18592-1.3147,9.09906-3.08662,1.52872-1.37621,2.23114-3.67858,2.08458-6.88936-.15812-1.72211-.85248-3.04671-2.09656-3.96008-2.73301-1.84457-7.50127-3.39294-14.57582-4.73306l-17.55783-5.43224c-15.86701-7.35298-24.4253-19.4454-25.43555-35.94304-.76036-12.10208,2.96664-22.8643,11.08268-31.99364,7.98288-9.12328,18.16622-14.13464,30.2818-14.89588,1.24816-.09684,2.53282-.14594,3.8183-.14594M47.95371,2.97629c-1.31685,0-2.61607.04967-3.89566.14895-12.43604.78126-22.7539,5.85938-30.95702,15.23438C4.76655,27.73462.99165,38.6399,1.77289,51.07446c1.04054,16.99218,9.73194,29.26416,26.07422,36.81592l17.67578,5.46874c6.8999,1.30372,11.65332,2.83204,14.25782,4.58986.97656.71776,1.5288,1.79198,1.66016,3.22264.12988,2.86622-.45606,4.88282-1.75782,6.0547-1.7578,1.62792-4.58984,2.57324-8.4961,2.83202-.22236.02046-.46103.03069-.71634.03069-1.38959,0-3.2673-.30322-5.6313-.90958-4.88282-1.23534-8.98438-3.5791-12.3047-7.03124l-26.85546,25.48828c12.30468,12.95603,27.86426,19.43359,46.67968,19.43359,13.47656-.91211,24.28272-5.07812,32.42188-12.5,9.96094-9.17969,14.48534-21.09375,13.57422-35.74219-1.042-17.44628-10.38526-29.75098-28.02734-36.91358l-18.06642-4.98046c-8.78906-1.69238-13.28124-4.39454-13.47656-8.10548-.13134-2.27832.55226-4.26318,2.05078-5.95702,1.49708-1.69238,3.48194-2.63672,5.95704-2.83204.55056-.03344,1.09502-.05014,1.63433-.05014,6.79348,0,12.69434,2.65356,17.70161,7.9603l26.95312-25.48828c-8.33448-8.78906-18.4248-14.64844-30.27344-17.57812-5.19041-1.27127-10.1412-1.90677-14.85434-1.90677h0Z"/>
  </g>
  <g>
    <path class="st1" d="M133.66455,144.22656V41.60156c0-.27637-.22363-.5-.5-.5h-26.0625V5.08984h90.79688v36.01172h-27.625c-.27637,0-.5.22363-.5.5v102.625h-36.10938Z"/>
    <path class="st0" d="M197.39886,5.59008v35.01172h-27.125c-.55228,0-1,.44772-1,1v102.12452h-35.10938V41.6018c0-.55228-.44772-1-1-1h-25.5625V5.59008h89.79688M198.39886,4.59008h-91.79688v37.01172h26.5625v103.12452h37.10938V41.6018h28.125V4.59008h0Z"/>
  </g>
  <g>
    <path class="st1" d="M296.34229,144.22656l-5.64258-15.68457c-.07178-.19824-.25977-.33105-.4707-.33105h-51.95312c-.20996,0-.39746.13086-.46973.32812l-5.73926,15.6875h-38.29443L243.90088,5.08984h40.70312l50.12842,139.13672h-38.39014ZM264.25244,56.04297c-.21045,0-.39844.13184-.47021.32959l-12.69531,35.05908c-.05518.15332-.03271.32324.06104.45703.09326.13379.24609.21289.40918.21289h25.39062c.16309,0,.31592-.0791.40918-.21289.09375-.13379.11621-.30371.06104-.45703l-12.69531-35.05908c-.07178-.19775-.25977-.32959-.47021-.32959Z"/>
    <path class="st0" d="M284.25287,5.59008l49.7677,138.13624h-37.32693l-5.52374-15.35414c-.14276-.39685-.5192-.66148-.94095-.66148h-51.95312c-.41978,0-.79489.26218-.93912.65643l-5.61923,15.35919h-37.23329L244.25191,5.59008h40.00096M251.55707,92.60133h25.39062c.32599,0,.6315-.15888.8187-.42577.18719-.26685.23254-.60822.12155-.91472l-12.69531-35.05812c-.14334-.39584-.51926-.65952-.94025-.65952s-.79691.26368-.94025.65952l-12.69531,35.05812c-.11101.3065-.06564.64787.12155.91472.18719.26688.49271.42577.8187.42577M284.95551,4.59008h-41.40625l-50.48828,140.13624h39.35547l5.85938-16.01561h51.95312l5.76172,16.01561h39.45312L284.95551,4.59008h0ZM251.55707,91.60133l12.69531-35.05812,12.69531,35.05812h-25.39062Z"/>
  </g>
  <g>
    <path class="st1" d="M407.52783,146.27734c-19.56152,0-36.52832-7.04785-50.42773-20.94727s-20.94727-30.86621-20.94727-50.42773c0-19.62646,7.04785-36.62598,20.94727-50.52539s30.86621-20.94727,50.42773-20.94727c17.77588,0,33.56152,5.9502,46.92676,17.68652l-25.58398,25.58398c-6.29248-4.75195-13.4707-7.16113-21.34277-7.16113-9.66309,0-18.06152,3.49902-24.96289,10.40039-6.90088,6.83643-10.40039,15.23584-10.40039,24.96289,0,9.66309,3.49902,18.06152,10.40039,24.96289s15.2998,10.40039,24.96289,10.40039c7.87402,0,15.05225-2.44043,21.34473-7.25684l25.58203,25.58203c-13.36523,11.73633-29.15088,17.68652-46.92676,17.68652Z"/>
    <path class="st0" d="M407.52777,3.92994c17.47244,0,33.00903,5.79017,46.19464,17.21147l-24.89963,24.89962c-6.29684-4.64683-13.45648-7.00171-21.29501-7.00171-9.80045,0-18.31815,3.54846-25.31314,10.54348-7.00055,6.93502-10.55014,15.45384-10.55014,25.3198,0,9.80012,3.54846,18.31764,10.54681,25.31598,6.99832,6.99834,15.51602,10.5468,25.31647,10.5468,7.84076,0,15.00183-2.38645,21.29901-7.09538l24.89563,24.89563c-13.18561,11.4213-28.7222,17.21147-46.19464,17.21147-19.42435,0-36.27173-6.99843-50.07416-20.80084-13.80243-13.80244-20.80084-30.64964-20.80084-50.07366,0-19.48914,6.99841-36.36938,20.80084-50.17182,13.80243-13.80242,30.64981-20.80084,50.07416-20.80084M407.52777,2.92994c-19.79199,0-36.71875,7.03124-50.78125,21.09374-14.0625,14.0625-21.09375,31.02246-21.09375,50.87892,0,19.7915,7.03125,36.71826,21.09375,50.78076,14.0625,14.06249,30.98926,21.09374,50.78125,21.09374,18.16406,0,34.04883-6.05469,47.65625-18.16406l-26.26953-26.26952c-6.31543,4.94824-13.44434,7.42186-21.38672,7.42186-9.57031,0-17.77344-3.41796-24.60938-10.2539s-10.25391-15.03906-10.25391-24.60888c0-9.63428,3.41797-17.83742,10.25391-24.60938,6.83594-6.83594,15.03906-10.2539,24.60938-10.2539,7.94238,0,15.07129,2.4414,21.38672,7.3242l26.26953-26.26952c-13.60742-12.10938-29.49219-18.16406-47.65625-18.16406h0Z"/>
  </g>
  <g>
    <path class="st1" d="M556.76855,144.22656l-35.29883-47.06543c-.09277-.12305-.23633-.19629-.38965-.2002h-.01074c-.14941,0-.29102.06641-.38672.18262l-16.60156,20.21484c-.07324.08984-.11328.20117-.11328.31738v26.55078h-36.01123V5.08984h36.01123v54.1875c0,.21094.13281.39941.33105.4707.05566.01953.1123.0293.16895.0293.14648,0,.28906-.06494.38672-.18262l44.77148-54.50488h46.65527l-51.37988,62.56152c-.14551.17822-.15137.43311-.01367.61719l56.9209,75.95801h-45.04004Z"/>
    <path class="st0" d="M595.22406,5.59008l-50.70831,61.74426c-.29236.356-.30371.86568-.02747,1.23434l56.3208,75.15764h-43.7901l-35.14923-46.86562c-.1842-.24562-.47101-.393-.77795-.39976-.00739-.00017-.01471-.00024-.02203-.00024-.29889,0-.58264.13379-.77283.36534l-16.60153,20.21484c-.14691.17888-.2272.40318-.2272.63466v26.05077h-35.01172V5.59008h35.01172v53.6875c0,.42232.26529.7991.6629.94146.11032.03951.22418.05859.33691.05859.29358,0,.57922-.12952.77292-.36531l44.62186-54.32224h45.36127M597.33929,4.59008h-47.94922l-44.92188,54.6875V4.59008h-37.01172v140.13624h37.01172v-27.05077l16.60156-20.21484,35.44922,47.26562h46.28906l-57.51953-76.75732,52.05078-63.37892h0Z"/>
  </g>
  <g>
    <path class="st1" d="M746.06934,138.07422c-4.79199,0-8.88184-1.5957-12.15332-4.74316-3.26758-3.1416-4.9248-7.06152-4.9248-11.65137,0-2.52637.49609-4.99121,1.47461-7.32617.97949-2.33691,2.40527-4.45117,4.23828-6.28516l13.76953-13.76953c.14258-.14258.18555-.3584.1084-.54492s-.25977-.30859-.46191-.30859h-90.42969c-4.9834,0-9.25098-1.72559-12.68555-5.12891-3.43262-3.40137-5.17383-7.7168-5.17383-12.82812,0-4.98096,1.74121-9.24805,5.17578-12.68359,3.43457-3.43457,7.70215-5.17578,12.68359-5.17578h90.42969c.19629,0,.37402-.11426.45508-.29297.08105-.17822.05078-.3877-.07812-.53516l-13.76953-15.82031c-1.91699-2.04492-3.36328-4.18164-4.3125-6.36523-.94531-2.17236-1.42383-4.35596-1.42383-6.49023,0-4.06299,1.70117-7.6333,5.05664-10.6123,3.37402-2.99463,7.41797-4.5127,12.02148-4.5127,2.58203,0,5.05762.54297,7.35742,1.61328,2.30176,1.07422,4.2998,2.57617,5.93652,4.46436l50.29395,56.41113-50.28906,56.50342c-1.7666,1.95508-3.81445,3.47559-6.08496,4.5166-2.26758,1.03906-4.69434,1.56543-7.21387,1.56543Z"/>
    <path class="st0" d="M746.06976,13.50025c2.50854,0,4.91296.52712,7.14575,1.56645,2.23773,1.04345,4.17926,2.50317,5.77972,4.34902l49.9931,56.07335-49.98877,56.1646c-1.72278,1.90733-3.71613,3.38768-5.92456,4.3999-2.20117,1.00885-4.55804,1.52037-7.00525,1.52037-4.65875,0-8.63116-1.54883-11.80695-4.60371-3.21051-3.0864-4.77118-6.77966-4.77118-11.2908,0-2.45979.48315-4.85966,1.43597-7.13303.95386-2.27619,2.34363-4.33691,4.13049-6.12471l13.76953-13.76955c.28601-.28598.37158-.7161.2168-1.08979-.15479-.37366-.51941-.61731-.92389-.61731h-90.42969c-4.84644,0-8.99597-1.67679-12.33331-4.98386-3.33508-3.30381-5.02606-7.50024-5.02606-12.47269,0-4.84389,1.69214-8.99231,5.02936-12.33,3.33728-3.33724,7.48566-5.02936,12.33002-5.02936h90.42969c.39191,0,.74768-.22893.9101-.5856s.1015-.77531-.15576-1.07093l-13.79437-15.84779c-1.86511-1.98914-3.28052-4.07812-4.20697-6.20888-.91693-2.109-1.3819-4.2255-1.3819-6.29071,0-3.9689,1.59906-7.31795,4.88849-10.23848,3.27893-2.91069,7.21191-4.38652,11.68964-4.38652M746.06976,12.50025c-4.75293,0-8.87109,1.54736-12.35352,4.63867-3.4834,3.09276-5.22461,6.75488-5.22461,10.98633,0,2.21386.48828,4.44336,1.46484,6.68945s2.44141,4.41112,4.39453,6.49414l13.76953,15.82031h-90.42969c-5.14355,0-9.48926,1.7744-13.03711,5.32226-3.54883,3.5493-5.32227,7.89502-5.32227,13.0371,0,5.27295,1.77344,9.6675,5.32227,13.18311,3.54785,3.51562,7.89355,5.27343,13.03711,5.27343h90.42969l-13.76953,13.76955c-1.88867,1.88965-3.33691,4.03807-4.3457,6.44531-1.00977,2.40916-1.51367,4.91698-1.51367,7.51952,0,4.75293,1.69238,8.75684,5.07812,12.01172,3.38477,3.25586,7.55176,4.8828,12.5,4.8828,2.60352,0,5.07812-.53709,7.42188-1.6113,2.34375-1.07425,4.42676-2.62012,6.25-4.6387l50.58594-56.83544-50.58594-56.73827c-1.69336-1.95314-3.72754-3.48195-6.10352-4.58986-2.37695-1.10643-4.89941-1.66014-7.56836-1.66014h0Z"/>
  </g>
</svg>