<?xml version="1.0" encoding="UTF-8"?>
<svg id="Layer_1" xmlns="http://www.w3.org/2000/svg" version="1.1" viewBox="0 0 130 76">
  <!-- Generator: Adobe Illustrator 29.5.1, SVG Export Plug-In . SVG Version: 2.1.0 Build 141)  -->
  <defs>
    <style>
      .st0 {
        fill: #1d1d1b;
      }

      .st1 {
        fill: #fff;
      }
    </style>
  </defs>
  <g>
    <path class="st1" d="M32.2334,73.7998c-5.74805,0-10.94189-1.40527-15.43799-4.17578-4.49609-2.76855-8.08301-6.88672-10.66113-12.24023-2.58838-5.37012-3.90088-11.8916-3.90088-19.38379,0-7.49121,1.3125-14.01221,3.90039-19.38232,2.57861-5.35303,6.16553-9.47168,10.66162-12.2417,4.49902-2.771,9.69336-4.17578,15.43799-4.17578,5.74512,0,10.95605,1.40527,15.48926,4.17676,4.52734,2.76953,8.11328,6.88721,10.65918,12.23828,2.55566,5.37305,3.85156,11.89502,3.85156,19.38477,0,7.49121-1.2959,14.01367-3.85156,19.38574-2.5459,5.35254-6.13184,9.46973-10.65918,12.2373-4.53027,2.77148-9.74121,4.17676-15.48926,4.17676ZM32.2334,16.60059c-3.89844,0-6.98486,1.76074-9.17285,5.2334-2.1416,3.39941-3.22705,8.83838-3.22705,16.16602,0,7.3291,1.08545,12.76855,3.22705,16.16699,2.18652,3.47266,5.27295,5.2334,9.17285,5.2334,3.89746,0,7-1.75977,9.2207-5.23047,2.17578-3.40039,3.2793-8.84082,3.2793-16.16992,0-7.32764-1.10352-12.76758-3.27881-16.16895-2.22266-3.4707-5.3252-5.23047-9.22119-5.23047Z"/>
    <path class="st0" d="M32.2334,2.70044c5.65101,0,10.77459,1.38052,15.22818,4.10305,4.4435,2.71819,7.96558,6.76439,10.46839,12.0262,2.52378,5.30581,3.80344,11.75572,3.80344,19.17057,0,7.41627-1.27965,13.86614-3.80348,19.17064-2.50287,5.26337-6.02484,9.30931-10.46835,12.02563-4.45059,2.72259-9.57408,4.10305-15.22816,4.10305s-10.75965-1.37988-15.17589-4.10153c-4.41304-2.71716-7.93664-6.76517-10.47311-12.03192-2.55533-5.30106-3.851-11.74939-3.851-19.16587,0-7.41507,1.29568-13.86344,3.85112-19.16611,2.53625-5.26487,6.05995-9.31314,10.47307-12.03222,4.41913-2.72154,9.52501-4.10148,15.17581-4.10148M32.2334,59.90014c4.07901,0,7.32307-1.83733,9.64211-5.461,2.25952-3.53101,3.35789-8.90821,3.35789-16.43889,0-7.52913-1.09834-12.90628-3.35806-16.43917-2.32027-3.62348-5.56429-5.46074-9.64194-5.46074-4.08179,0-7.31036,1.83933-9.59616,5.46707-2.22308,3.52975-3.30374,8.90498-3.30374,16.43283,0,7.52941,1.08069,12.90468,3.30371,16.43277,2.28445,3.62772,5.51308,5.46712,9.5962,5.46712M32.2334,1.70044c-5.86719,0-11.10009,1.417-15.7002,4.25-4.5996,2.83399-8.21679,6.98438-10.8496,12.44971-2.63476,5.46729-3.9502,12-3.9502,19.60011s1.31544,14.13427,3.9502,19.60009c2.63281,5.4668,6.25,9.61719,10.8496,12.44923,4.60011,2.83495,9.83301,4.25,15.7002,4.25,5.86572,0,11.11572-1.41505,15.75-4.25,4.63281-2.83204,8.25-6.98243,10.84961-12.44923,2.60059-5.46583,3.90039-12,3.90039-19.60009s-1.2998-14.13281-3.90039-19.60011c-2.59961-5.46533-6.2168-9.61572-10.84961-12.44971-4.63428-2.833-9.88428-4.25-15.75-4.25h0ZM32.2334,58.90014c-3.73438,0-6.64991-1.66503-8.75-5-2.10009-3.333-3.14991-8.63281-3.14991-15.89989,0-7.26562,1.04981-12.56544,3.14991-15.89991,2.10009-3.33301,5.01562-5,8.75-5,3.73291,0,6.66553,1.66699,8.7998,5,2.13281,3.33447,3.2002,8.63428,3.2002,15.89991,0,7.26708-1.06739,12.56689-3.2002,15.89989-2.13427,3.33497-5.06689,5-8.7998,5h0Z"/>
  </g>
  <g>
    <path class="st1" d="M100.06738,72.50098v-13.30078c0-.27637-.22363-.5-.5-.5h-36.7998v-11.63672L94.62207,3.5h17.97559l-28.83789,40.50977c-.1084.15234-.12305.35254-.03711.51953.08594.16602.25684.27051.44434.27051h16c.27637,0,.5-.22363.5-.5v-11.7998h16.30078v11.7998c0,.27637.22363.5.5.5h10.29883v13.90039h-10.29883c-.27637,0-.5.22363-.5.5v13.30078h-16.90039Z"/>
    <path class="st0" d="M111.62798,4.00024l-28.27565,39.71938c-.21708.30494-.24569.70556-.07414,1.03823.17153.33268.5145.54171.8888.54171h16c.55228,0,1-.44771,1-1v-11.29932h15.30079v11.29932c0,.55229.44771,1,1,1h9.79882v12.90039h-9.79882c-.55229,0-1,.44772-1,1v12.80078h-15.90041v-12.80078c0-.55228-.44771-1-1-1h-36.2998v-10.97319L94.87578,4.00024h16.7522M113.56738,3.00024h.005-.005ZM113.56738,3.00024h-19.19921l-32.10059,43.8999v12.29981h37.2998v13.80078h17.90041v-13.80078h10.79882v-14.90039h-10.79882v-12.29932h-17.30079v12.29932h-16L113.56738,3.00024h0Z"/>
  </g>
</svg>