<?xml version="1.0" encoding="UTF-8"?>
<svg id="Layer_1" xmlns="http://www.w3.org/2000/svg" version="1.1" viewBox="0 0 119 76">
  <!-- Generator: Adobe Illustrator 29.5.1, SVG Export Plug-In . SVG Version: 2.1.0 Build 141)  -->
  <defs>
    <style>
      .st0 {
        fill: #fff;
      }
    </style>
  </defs>
  <g>
    <path d="M32.71875,73.7998c-5.74805,0-10.94189-1.40527-15.43799-4.17578-4.49658-2.76953-8.0835-6.8877-10.66113-12.24121-2.58838-5.36914-3.90088-11.88965-3.90088-19.38281,0-7.49072,1.3125-14.01221,3.90039-19.38281,2.57861-5.35254,6.16553-9.47119,10.66162-12.24121,4.49902-2.771,9.69336-4.17578,15.43799-4.17578s10.95557,1.40527,15.48926,4.17676c4.52686,2.76904,8.11377,6.88672,10.65967,12.23779,2.55518,5.37402,3.85107,11.896,3.85107,19.38525,0,7.49121-1.2959,14.0127-3.85107,19.38477-2.54541,5.35156-6.13184,9.46973-10.65967,12.23828-4.53027,2.77148-9.7417,4.17676-15.48926,4.17676ZM32.71875,16.6001c-3.89844,0-6.98486,1.76074-9.17285,5.2334-2.1416,3.3999-3.22705,8.83887-3.22705,16.1665,0,7.3291,1.08545,12.76855,3.22705,16.16699,2.1875,3.47266,5.27344,5.2334,9.17285,5.2334,3.89697,0,6.99902-1.75977,9.2207-5.23047,2.17627-3.40039,3.2793-8.84082,3.2793-16.16992,0-7.32764-1.10303-12.76758-3.27881-16.16943-2.22266-3.4707-5.3252-5.23047-9.22119-5.23047Z"/>
    <path class="st0" d="M32.71875,2.70018c5.65101,0,10.77459,1.38052,15.22818,4.10304,4.44308,2.71793,7.96551,6.76417,10.46931,12.02607,2.52316,5.30653,3.80252,11.75648,3.80252,19.17069,0,7.41627-1.27933,13.866-3.80247,19.17009-2.50314,5.26288-6.02549,9.30921-10.46936,12.02667-4.45059,2.72259-9.57408,4.10305-15.22816,4.10305s-10.75965-1.37988-15.17576-4.10145c-4.41398-2.71868-7.93761-6.76702-10.47326-12.03305-2.55532-5.30004-3.85098-11.74819-3.85098-19.16532,0-7.41509,1.29568-13.86346,3.85112-19.16611,2.53622-5.26485,6.05993-9.31311,10.47307-12.03222,4.41913-2.72154,9.52501-4.10148,15.17581-4.10148M32.71875,59.90039c4.07833,0,7.32238-1.83729,9.64211-5.461,2.25952-3.53102,3.35789-8.90839,3.35789-16.43939,0-7.52915-1.09834-12.90631-3.35806-16.43916-2.32029-3.62348-5.5643-5.46074-9.64194-5.46074-4.08176,0-7.31034,1.83933-9.59616,5.46707-2.22307,3.52974-3.30373,8.90496-3.30373,16.43283,0,7.52974,1.08069,12.90518,3.30377,16.43336,2.28508,3.62766,5.51369,5.46702,9.59613,5.46702M32.71875,1.70018c-5.86719,0-11.10009,1.417-15.7002,4.25-4.5996,2.834-8.2168,6.98438-10.8496,12.4497-2.63478,5.46729-3.9502,12-3.9502,19.60011s1.31542,14.13477,3.9502,19.59961c2.6328,5.46778,6.25,9.61719,10.8496,12.4502,4.60011,2.83495,9.83301,4.25,15.7002,4.25,5.86572,0,11.11572-1.41505,15.75-4.25,4.63282-2.83301,8.25-6.98244,10.85059-12.4502,2.59961-5.46485,3.89941-11.99951,3.89941-19.59961s-1.2998-14.13281-3.89941-19.60011c-2.60059-5.46533-6.21778-9.61573-10.85059-12.4497-4.63428-2.833-9.88428-4.25-15.75-4.25h0ZM32.71875,58.90039c-3.73438,0-6.64989-1.66601-8.75-5-2.10009-3.33301-3.14989-8.6333-3.14989-15.90039,0-7.26562,1.0498-12.56543,3.14989-15.89991,2.10011-3.333,5.01562-5,8.75-5,3.73292,0,6.66552,1.667,8.7998,5,2.13282,3.33447,3.2002,8.63428,3.2002,15.89991,0,7.26709-1.06739,12.56738-3.2002,15.90039-2.13427,3.33399-5.06688,5-8.7998,5h0Z"/>
  </g>
  <g>
    <path d="M86.88086,73.7998c-4.86621,0-9.73633-.61719-14.47559-1.83398-4.55664-1.1709-8.58301-2.83496-11.97559-4.94727l6.5459-13.18652c2.64746,1.73633,5.64258,3.11328,8.91211,4.09668,3.45996,1.04297,6.99023,1.57129,10.49316,1.57129,3.74609,0,6.76465-.71582,8.96973-2.12891,2.27637-1.45801,3.43066-3.50098,3.43066-6.07129,0-5.17578-4.10449-7.7998-12.2002-7.7998h-7.5v-11.40479l13.06738-14.15576c.13477-.146.1709-.35791.09082-.54004-.08008-.18164-.25977-.29932-.45801-.29932h-27.7998V3.5h49v11.10645l-14.6709,16.15771c-.12109.13379-.16113.32227-.10449.49365.05762.17139.20215.29883.37988.33301,5.72754,1.10742,10.15723,3.4248,13.16797,6.88721,3.00391,3.45654,4.52734,7.77002,4.52734,12.82178,0,4.01758-1.08398,7.76367-3.22168,11.13281-2.13867,3.36914-5.4502,6.13281-9.84277,8.21484-4.41309,2.0918-9.90918,3.15234-16.33594,3.15234Z"/>
    <path class="st0" d="M112.48148,4v10.41353l-14.54114,16.01432c-.24287.26749-.32258.6452-.20849.98802.1141.34282.40426.59743.75899.66602,5.61516,1.08575,9.9504,3.34806,12.88525,6.724,2.92303,3.36309,4.40515,7.56665,4.40515,12.4939,0,3.92132-1.05785,7.57671-3.1441,10.86454-2.08704,3.28847-5.32864,5.99069-9.63477,8.03161-4.34547,2.05956-9.76952,3.10384-16.1215,3.10384-4.82386,0-9.6522-.61173-14.35074-1.81814-4.33538-1.11406-8.18226-2.67694-11.44935-4.65027l6.09467-12.27693c2.56897,1.61991,5.44559,2.91412,8.56732,3.85322,3.50698,1.05658,7.08614,1.59231,10.63809,1.59231,3.8435,0,6.95212-.74278,9.23959-2.20774,2.42913-1.55602,3.66081-3.7404,3.66081-6.49244,0-5.50735-4.27296-8.2998-12.7002-8.2998h-7v-10.70912l12.93499-14.01249c.26942-.29186.34057-.7155.18126-1.07936-.1593-.36386-.51884-.59893-.91605-.59893h-27.2998V4h48M113.48148,3h-50v14.6001h28.2998l-13.2002,14.2998v12.1001h8c7.79981,0,11.7002,2.43456,11.7002,7.2998,0,2.40039-1.06739,4.28418-3.2002,5.65039-2.13477,1.36718-5.03417,2.0498-8.7002,2.0498-3.4668,0-6.917-.51562-10.34962-1.5498-3.43458-1.03321-6.51757-2.4834-9.25-4.35059l-7,14.10059c3.53222,2.2666,7.7002,4.0166,12.5,5.25,4.79981,1.23242,9.66504,1.84961,14.59962,1.84961,6.53319,0,12.04979-1.0674,16.54979-3.2002,4.5-2.13281,7.85058-4.93261,10.05079-8.39941,2.1992-3.46582,3.29979-7.26562,3.29979-11.40039,0-5.1997-1.54979-9.58252-4.65039-13.1499h.00005c-3.09962-3.56543-7.584-5.91552-13.45021-7.04981l14.80079-16.30029V3h0Z"/>
  </g>
</svg>