<?xml version="1.0" encoding="UTF-8"?>
<svg id="Layer_1" xmlns="http://www.w3.org/2000/svg" version="1.1" viewBox="0 0 121 76">
  <!-- Generator: Adobe Illustrator 29.5.1, SVG Export Plug-In . SVG Version: 2.1.0 Build 141)  -->
  <defs>
    <style>
      .st0 {
        fill: #fff;
      }
    </style>
  </defs>
  <g>
    <path d="M32.84375,73.7998c-5.74805,0-10.94189-1.40527-15.43799-4.17578-4.49609-2.76855-8.0835-6.88672-10.66162-12.24023-2.58838-5.37012-3.90088-11.89258-3.90088-19.38379,0-7.49072,1.3125-14.01221,3.90039-19.38281,2.57861-5.35303,6.16602-9.47119,10.66211-12.24121,4.49902-2.771,9.69336-4.17578,15.43799-4.17578,5.74414,0,10.95508,1.40527,15.48926,4.17676,4.52783,2.76904,8.11426,6.88672,10.65918,12.23779,2.55566,5.37549,3.85156,11.89795,3.85156,19.38525,0,7.48828-1.2959,14.01074-3.85156,19.38574-2.54541,5.35254-6.13135,9.46973-10.65918,12.2373-4.53027,2.77148-9.7417,4.17676-15.48926,4.17676ZM32.84375,16.6001c-3.89844,0-6.98486,1.76074-9.17285,5.2334-2.1416,3.3999-3.22705,8.83887-3.22705,16.1665,0,7.33008,1.08545,12.76855,3.22705,16.16602,2.18652,3.47266,5.27295,5.2334,9.17285,5.2334,3.89746,0,7-1.75977,9.2207-5.23047,2.17627-3.39941,3.2793-8.83887,3.2793-16.16895,0-7.32764-1.10303-12.76758-3.27881-16.16943-2.22266-3.4707-5.3252-5.23047-9.22119-5.23047Z"/>
    <path class="st0" d="M32.84351,2.7002c5.65101,0,10.77459,1.38052,15.22821,4.10307,4.44374,2.71804,7.96597,6.76423,10.46878,12.02605,2.52381,5.30788,3.80349,11.75784,3.80349,19.17069,0,7.41366-1.27967,13.86375-3.80348,19.17114-2.50293,5.26348-6.02505,9.30942-10.46884,12.02562-4.45059,2.72259-9.57408,4.10305-15.22816,4.10305s-10.75966-1.37988-15.17591-4.10153c-4.41302-2.71716-7.93664-6.76518-10.47307-12.03186-2.55536-5.30202-3.85104-11.75054-3.85104-19.16642,0-7.41509,1.29568-13.86346,3.85112-19.16611,2.53624-5.26486,6.05995-9.31313,10.47308-12.03222,4.41912-2.72154,9.525-4.10148,15.17581-4.10148M32.84351,59.89943c4.079,0,7.32307-1.83733,9.64204-5.46089,2.22819-3.48102,3.35796-9.01174,3.35796-16.43852,0-7.52915-1.09834-12.90631-3.35806-16.43916-2.32028-3.62348-5.5643-5.46074-9.64194-5.46074-4.08176,0-7.31035,1.83933-9.59616,5.46707-2.22307,3.52974-3.30373,8.90496-3.30373,16.43283,0,7.53012,1.08072,12.90527,3.30369,16.43228,2.28447,3.62772,5.51309,5.46713,9.5962,5.46713M32.84351,1.7002c-5.8672,0-11.10011,1.417-15.7002,4.25-4.59961,2.834-8.2168,6.98438-10.84961,12.4497-2.63478,5.46729-3.9502,12-3.9502,19.60011,0,7.60059,1.31542,14.13379,3.9502,19.60059,2.63281,5.4668,6.25,9.61719,10.84961,12.44922,4.60009,2.83495,9.83301,4.25,15.7002,4.25,5.86572,0,11.11572-1.41505,15.75-4.25,4.6333-2.83204,8.25048-6.98242,10.85009-12.44922,2.59961-5.4668,3.90039-12,3.90039-19.60059,0-7.60011-1.30078-14.13281-3.90039-19.60011-2.59961-5.46533-6.2168-9.61573-10.85009-12.4497-4.63428-2.833-9.88428-4.25-15.75-4.25h0ZM32.84351,58.89943c-3.73438,0-6.64989-1.66505-8.75-5-2.1001-3.33204-3.14989-8.63281-3.14989-15.89941,0-7.26562,1.0498-12.56543,3.14989-15.89991,2.10011-3.33301,5.01562-5,8.75-5,3.73292,0,6.66552,1.66699,8.7998,5,2.13282,3.33447,3.2002,8.63428,3.2002,15.89991,0,7.2666-1.06739,12.56738-3.2002,15.89941-2.13427,3.33495-5.06688,5-8.7998,5h0Z"/>
  </g>
  <g>
    <path d="M65.35742,72.5v-11.18164l26.34082-24.55273c2.69629-2.49463,4.54785-4.71191,5.50293-6.58838.96582-1.89551,1.45508-3.77197,1.45508-5.57715,0-2.61914-.92383-4.65381-2.74512-6.04688-1.78223-1.3623-4.3916-2.05322-7.75488-2.05322-2.79688,0-5.41113.58936-7.76953,1.75146-2.23145,1.10059-4.16699,2.73877-5.75977,4.87451l-12.56641-7.97168c2.71582-3.9082,6.4707-7.0542,11.16504-9.35498,4.875-2.38818,10.50391-3.59912,16.73145-3.59912,5.17578,0,9.80273.84473,13.75488,2.51074,3.92578,1.65479,6.99902,4.06787,9.13184,7.17236,2.13184,3.09912,3.21289,6.77197,3.21289,10.9165,0,3.70703-.79199,7.26904-2.35254,10.5874-1.56445,3.32422-4.6543,7.10693-9.18359,11.24365l-14.30176,13.10059c-.15234.13965-.20312.3584-.12793.55078.07422.19141.25977.31836.46582.31836h27.59961v13.89941h-52.79883Z"/>
    <path class="st0" d="M89.95729,2.7002c5.10828,0,9.67078.83146,13.56077,2.47127,3.83652,1.61729,6.83559,3.97075,8.91418,6.9954,2.07336,3.01392,3.12465,6.59137,3.12465,10.63295,0,3.63287-.7756,7.12337-2.30524,10.37457-1.53606,3.26486-4.58708,6.99512-9.06945,11.08826l-14.30079,13.10059c-.30412.2786-.406.71533-.25655,1.09974.14945.3844.51959.63762.93203.63762h27.09962v12.89941h-51.79883v-10.46447l26.17921-24.40166c2.7791-2.57179,4.61429-4.7732,5.61031-6.72982,1.00151-1.96635,1.50932-3.91909,1.50932-5.80394,0-2.78312-.98958-4.95124-2.94156-6.4444-1.87142-1.43041-4.58268-2.1557-8.05844-2.1557-2.87424,0-5.56276.60668-7.991,1.80328-2.17287,1.07121-4.07218,2.63481-5.65701,4.65522l-11.73521-7.4443c2.64124-3.6412,6.22708-6.58736,10.67274-8.76606,4.80582-2.35423,10.361-3.54794,16.51126-3.54794M89.95729,1.7002c-6.33399,0-11.98438,1.2168-16.95118,3.6499-4.96679,2.43409-8.84961,5.75-11.64941,9.94971l13.39941,8.5c1.60156-2.26563,3.55077-3.96533,5.85156-5.09961,2.29883-1.13281,4.81445-1.7002,7.54883-1.7002,3.26562,0,5.75.64991,7.45117,1.9502,1.69921,1.2998,2.54883,3.18407,2.54883,5.6499,0,1.73438-.4668,3.51709-1.40039,5.3501-.9336,1.83399-2.73438,3.98439-5.39844,6.44971l-26.5,24.70068v11.89941h53.79883v-14.89941h-28.09962l14.30079-13.10059c4.59962-4.20019,7.69921-8,9.29883-11.3999,1.59961-3.3999,2.40038-7,2.40038-10.80029,0-4.26563-1.09959-8-3.30077-11.19971-2.19923-3.2002-5.31641-5.64991-9.34961-7.3501-4.03319-1.70019-8.6836-2.5498-13.94921-2.5498h0Z"/>
  </g>
</svg>