<?xml version="1.0" encoding="UTF-8"?>
<svg id="Layer_1" xmlns="http://www.w3.org/2000/svg" version="1.1" viewBox="0 0 784 183">
  <!-- Generator: Adobe Illustrator 29.5.1, SVG Export Plug-In . SVG Version: 2.1.0 Build 141)  -->
  <defs>
    <style>
      .st0 {
        fill: #fff;
      }
    </style>
  </defs>
  <g>
    <path d="M147.81396,143.125V54.66064c0-.24316-.1748-.45068-.41406-.49268-.02881-.00488-.05762-.00732-.08643-.00732-.20752,0-.39746.12939-.46973.33057l-31.9126,88.63379h-40.60596L42.31543,54.49072c-.07227-.20068-.2627-.33008-.46973-.33008-.02881,0-.05762.00244-.08691.00732-.23926.04199-.41357.25-.41357.49268v88.46436H5.3335V3.98877h57.15625l31.61963,87.85303c.07129.19824.25928.33008.47021.33008h0c.21045,0,.39893-.13184.47021-.32959L126.7666,3.98877h57.15674v139.13623h-36.10938Z"/>
    <path class="st0" d="M183.4232,4.48856v138.1367h-35.10938V54.66043c0-.48596-.34935-.90155-.82805-.98511-.05783-.01009-.11552-.01498-.17255-.01498-.41515,0-.79555.25934-.94028.66133l-31.79317,88.30358h-39.90372l-31.89043-88.3045c-.14501-.40152-.52517-.66043-.93996-.66043-.05718,0-.11504.00493-.17301.01508-.47848.08376-.82758.49925-.82758.98503v87.96482H5.83335V4.48856h56.3049l31.50027,87.52222c.14275.39663.51891.66116.94043.66135h.00048c.42133,0,.79753-.26412.94059-.66042L127.11752,4.48856h56.30568M184.4232,3.48856h-58.00783l-31.83593,88.18357L62.84115,3.48856H4.83335v140.1367h37.01173V54.66043l32.1289,88.96482h41.30859l32.03126-88.96482v88.96482h37.10938V3.48856h0Z"/>
  </g>
  <g>
    <rect x="197.91162" y="3.98877" width="36.01172" height="139.13623"/>
    <path class="st0" d="M233.4232,4.48854v138.13672h-35.01172V4.48854h35.01172M234.4232,3.48854h-37.01172v140.13672h37.01172V3.48854h0Z"/>
  </g>
  <g>
    <path d="M325.3584,143.125l-39.70605-79.99512c-.08545-.17285-.26123-.27783-.44775-.27783-.0376,0-.07617.00439-.11426.01318-.22607.05322-.38574.25488-.38574.48682v79.77295h-36.01172V3.98877h47.92041l48.29932,97.4751c.08594.17383.26123.27832.44824.27832.0376,0,.07568-.00391.11377-.0127.22656-.05371.38623-.25488.38623-.4873V3.98877h36.10938v139.13623h-56.61182Z"/>
    <path class="st0" d="M381.47006,4.48854v138.13672h-55.80182l-39.56808-79.71804c-.1716-.34576-.52231-.5555-.89548-.5555-.07568,0-.15234.00864-.22858.02652-.45206.10602-.77167.50925-.77167.97358v79.27344h-35.01173V4.48854h47.10997l48.16199,97.19788c.17151.34612.52237.55612.89578.55612.07556,0,.15213-.00861.22824-.02644.45224-.1059.772-.5092.772-.97366V4.48854h35.10938M382.47006,3.48854h-37.10938v97.7539L296.92319,3.48854h-48.73048v140.13672h37.01173V63.35182l39.84375,80.27344h57.42188V3.48854h0Z"/>
  </g>
  <g>
    <path d="M380.04053,180.625v-24.78125h5.94531c2.92383,0,5.44141-1.03516,7.48193-3.07617,2.04102-2.04102,3.07617-4.52539,3.07617-7.38477V3.98877h36.01172v133.19092c0,11.91602-4.25488,22.24512-12.64746,30.70215-8.45508,8.45508-18.78516,12.74316-30.69971,12.74316h-9.16797Z"/>
    <path class="st0" d="M432.056,4.48856v132.69139c0,11.77908-4.20654,21.9904-12.50006,30.34757-8.35925,8.35923-18.56964,12.59773-30.3476,12.59773h-8.66797v-23.78125h5.44531c3.06125,0,5.69766-1.08422,7.836-3.22257,2.13837-2.13835,3.2226-4.7419,3.2226-7.73835V4.48856h35.01172M433.056,3.48856h-37.01172v141.89452c0,2.73438-.97656,5.07812-2.92969,7.03125s-4.3291,2.92967-7.12891,2.92967h-6.44531v25.78125h9.66797c12.10938,0,22.46094-4.29688,31.05469-12.89063,8.52832-8.59375,12.79297-18.9453,12.79297-31.05467V3.48856h0Z"/>
  </g>
  <g>
    <path d="M447.3252,143.125V3.98877h85.32812v36.01172h-48.81641c-.27637,0-.5.22363-.5.5v14.55078c0,.27637.22363.5.5.5h45.59375v36.01123h-45.59375c-.27637,0-.5.22363-.5.5v14.55078c0,.27637.22363.5.5.5h48.81641v36.01172h-85.32812Z"/>
    <path class="st0" d="M532.15369,4.48854v35.01172h-48.31641c-.55228,0-1,.44772-1,1v14.55078c0,.55228.44772,1,1,1h45.09375v35.01172h-45.09375c-.55228,0-1,.44772-1,1v14.55078c0,.55228.44772,1,1,1h48.31641v35.01172h-84.32812V4.48854h84.32812M533.15369,3.48854h-86.32812v140.13672h86.32812v-37.01172h-49.31641v-14.55078h46.09375v-37.01172h-46.09375v-14.55078h49.31641V3.48854h0Z"/>
  </g>
  <g>
    <path d="M547.42285,143.125V3.98877h85.32812v36.01172h-48.81641c-.27637,0-.5.22363-.5.5v14.55078c0,.27637.22363.5.5.5h45.59375v36.01123h-45.59375c-.27637,0-.5.22363-.5.5v14.55078c0,.27637.22363.5.5.5h48.81641v36.01172h-85.32812Z"/>
    <path class="st0" d="M632.25134,4.48854v35.01172h-48.31641c-.55225,0-1,.44772-1,1v14.55078c0,.55228.44775,1,1,1h45.09375v35.01172h-45.09375c-.55225,0-1,.44772-1,1v14.55078c0,.55228.44775,1,1,1h48.31641v35.01172h-84.32812V4.48854h84.32812M633.25134,3.48854h-86.32812v140.13672h86.32812v-37.01172h-49.31641v-14.55078h46.09375v-37.01172h-46.09375v-14.55078h49.31641V3.48854h0Z"/>
  </g>
  <g>
    <path d="M637.46191,44.2124c2.78223-.11865,4.88867-1.24072,6.26562-3.33984.01953-.0293.03516-.06055.04785-.09326l1.36719-3.51562c.22559-1.22412.32715-2.40332.32715-3.59912V3.98877h24.78125v29.67578c0,8.63867-2.49707,16.39111-7.4209,23.04248-6.02637,8.03564-14.55957,12.17139-25.36816,12.29443v-24.78906Z"/>
    <path class="st0" d="M669.75134,4.48854v29.17578c0,8.52898-2.46387,16.18143-7.31958,22.73988-5.83527,7.78146-14.0636,11.84521-24.46948,12.08833v-23.81067c2.71613-.22891,4.79321-1.41534,6.18384-3.53552.03833-.05849.0705-.12083.09583-.186l1.36719-3.51561c.02374-.06099.04138-.12418.0528-.18861.20447-1.15852.30817-2.36697.30817-3.5918V4.48854h23.78125M670.75134,3.48854h-25.78125v30.17578c0,1.17188-.09766,2.31151-.29297,3.41797l-1.36719,3.51561c-1.36719,2.08447-3.48242,3.125-6.34766,3.125v25.78125c11.2627,0,20.01953-4.16552,26.26953-12.5,5.0127-6.77049,7.51953-14.55078,7.51953-23.33983V3.48854h0Z"/>
  </g>
  <g>
    <path d="M733.03906,145.46875c-18.40234-.00391-33.86035-6.36816-45.95508-18.91602l26.13477-24.80469c3.31152,3.31152,7.41211,5.60352,12.19434,6.81445,2.39551.61328,4.33301.9248,5.75879.9248.26953,0,.52246-.01074.75781-.03223,3.99219-.26562,6.9541-1.2627,8.79004-2.96289,1.40723-1.2666,2.05371-3.43652,1.91699-6.44434-.14453-1.59766-.77148-2.80176-1.86328-3.60352-2.66406-1.79785-7.52344-3.36816-14.46094-4.67773l-17.62109-5.45459c-16.02344-7.40967-24.69824-19.6543-25.72266-36.36963-.76855-12.24023,3-23.12451,11.20312-32.35205,8.07617-9.22998,18.37598-14.29834,30.61426-15.06738,1.26855-.09814,2.56641-.14795,3.86426-.14795,4.65137,0,9.6084.63672,14.73535,1.89258,11.53418,2.85156,21.51855,8.5957,29.68359,17.07422l-26.22656,24.80127c-5.01074-5.14648-10.96973-7.75586-17.71875-7.75586-.5498,0-1.10449.01709-1.66504.05127-2.60547.20557-4.72168,1.21436-6.30078,3-1.58203,1.78857-2.31348,3.91406-2.17578,6.31689.21094,4.00635,4.75098,6.80957,13.88086,8.56787l18.02832,4.97119c17.31152,7.03223,26.63672,19.30615,27.66113,36.4624.89746,14.42383-3.61621,26.31445-13.41406,35.34375-8.00879,7.30371-18.80957,11.46582-32.09961,12.36816Z"/>
    <path class="st0" d="M728.651,2.87474c4.61072,0,9.52832.63188,14.6142,1.87753,11.2771,2.78836,21.06006,8.36264,29.0932,16.57414l-25.50372,24.11766c-5.03577-5.01505-10.99615-7.55647-17.73065-7.55647-.55682,0-1.12714.01747-1.71307.05324-2.72955.21544-4.95935,1.28076-6.62744,3.16646-1.67206,1.89062-2.44592,4.13704-2.30029,6.67206.22449,4.26581,4.88538,7.21895,14.24719,9.02738l17.97205,4.95445c17.13837,6.97527,26.34039,19.09554,27.35162,36.0277.88727,14.26512-3.57196,26.02224-13.25,34.94122-7.922,7.22426-18.61487,11.34193-31.78186,12.23889-18.07544-.0077-33.28583-6.19791-45.2265-18.40201l25.41766-24.12371c3.31348,3.19285,7.3717,5.41295,12.07501,6.60383,2.47101.63284,4.39551.94048,5.88342.94048.28271,0,.55298-.01157.77869-.03249,4.12207-.27414,7.18689-1.31584,9.09882-3.08662,1.52875-1.37624,2.2312-3.67862,2.08459-6.88892-.15753-1.72312-.85205-3.04798-2.09656-3.96053-2.73535-1.8461-7.50348-3.39445-14.57587-4.73303l-17.5578-5.43226c-15.86652-7.35297-24.4248-19.44558-25.43555-35.94353-.76031-12.10158,2.96667-22.86382,11.08264-31.99364,7.98291-9.12328,18.1662-14.13463,30.2818-14.89589,1.24835-.09685,2.53302-.14595,3.81842-.14595M728.651,1.87474c-1.31683,0-2.61615.04968-3.89575.14896-12.43555.78123-22.75391,5.85938-30.95703,15.23438-8.33398,9.375-12.10938,20.28027-11.32812,32.71484,1.04102,16.99218,9.73242,29.26464,26.07422,36.81641l17.67578,5.46876c6.90039,1.30272,11.65332,2.83202,14.25781,4.58984.97656.7168,1.5293,1.79102,1.66016,3.22266.12988,2.86522-.45605,4.8828-1.75781,6.05468-1.75781,1.62794-4.58984,2.57226-8.49609,2.83204-.22125.02021-.45856.0303-.71234.0303-1.38989,0-3.26868-.30311-5.63531-.90923-4.88281-1.23632-8.98438-3.58008-12.30469-7.03123l-26.85547,25.48828c12.30469,12.95606,27.86426,19.4336,46.67969,19.4336,13.47656-.91212,24.2832-5.07814,32.42188-12.5,9.96094-9.1797,14.48535-21.09376,13.57422-35.7422v-.00002c-1.04199-17.44726-10.38477-29.75146-28.02734-36.91406l-18.06641-4.98046c-8.78906-1.69238-13.28125-4.39453-13.47656-8.10548-.13086-2.27832.55273-4.26317,2.05078-5.95702,1.49707-1.69238,3.48242-2.63672,5.95703-2.83203.5506-.03343,1.09509-.05014,1.63446-.05014,6.79382,0,12.69464,2.65355,17.70148,7.9603l26.95312-25.48828c-8.33398-8.78906-18.4248-14.64842-30.27344-17.57809-5.19043-1.27129-10.14111-1.90678-14.85425-1.90678h0Z"/>
  </g>
</svg>