<?xml version="1.0" encoding="UTF-8"?>
<svg id="Layer_1" xmlns="http://www.w3.org/2000/svg" version="1.1" viewBox="0 0 100 76">
  <!-- Generator: Adobe Illustrator 29.5.1, SVG Export Plug-In . SVG Version: 2.1.0 Build 141)  -->
  <defs>
    <style>
      .st0 {
        fill: #fff;
      }
    </style>
  </defs>
  <g>
    <path class="st0" d="M32.4165,73.7998c-5.74805,0-10.94189-1.40527-15.43799-4.17578-4.49658-2.76953-8.0835-6.8877-10.66113-12.24121-2.58838-5.36914-3.90088-11.88965-3.90088-19.38281,0-7.49121,1.3125-14.01221,3.90039-19.38232,2.57861-5.35303,6.16553-9.47168,10.66162-12.2417,4.49902-2.771,9.69336-4.17578,15.43799-4.17578s10.95557,1.40527,15.48926,4.17676c4.52686,2.76953,8.11279,6.88672,10.65967,12.23828,2.55469,5.37549,3.85059,11.89746,3.85059,19.38477,0,7.48926-1.2959,14.01074-3.85059,19.38477-2.5459,5.35156-6.13184,9.46973-10.65967,12.23828-4.53027,2.77148-9.7417,4.17676-15.48926,4.17676ZM32.4165,16.60059c-3.89844,0-6.98486,1.76074-9.17285,5.2334-2.1416,3.39941-3.22705,8.83838-3.22705,16.16602,0,7.3291,1.08545,12.76855,3.22705,16.16699,2.1875,3.47266,5.27344,5.2334,9.17285,5.2334,3.89697,0,6.99902-1.75977,9.2207-5.23047,2.17627-3.40039,3.2793-8.84082,3.2793-16.16992,0-7.32764-1.10303-12.76758-3.27881-16.16895-2.22266-3.4707-5.3252-5.23047-9.22119-5.23047Z"/>
    <path d="M32.4165,2.7002c5.65104,0,10.77461,1.38052,15.22818,4.10305,4.4434,2.71812,7.96564,6.76448,10.46879,12.02652,2.52351,5.30774,3.80304,11.75754,3.80304,19.17023,0,7.41459-1.27951,13.86434-3.803,19.17017-2.50256,5.2627-6.02475,9.309-10.46883,12.02659-4.45058,2.72259-9.57407,4.10304-15.22816,4.10304s-10.75966-1.37988-15.17576-4.10146c-4.41395-2.71865-7.9376-6.76699-10.47326-12.03302-2.55532-5.30006-3.85098-11.74821-3.85098-19.16532,0-7.41521,1.29567-13.8634,3.85113-19.16565,2.53614-5.26512,6.05984-9.31353,10.47306-12.03267,4.41911-2.72154,9.52499-4.10148,15.17581-4.10148M32.4165,59.90039c4.07833,0,7.32238-1.8373,9.64211-5.46101,2.25952-3.53101,3.35789-8.90837,3.35789-16.43938,0-7.52932-1.09835-12.90633-3.35806-16.43867-2.32027-3.62348-5.56429-5.46074-9.64194-5.46074-4.08179,0-7.31036,1.83933-9.59613,5.46702-2.22311,3.52926-3.30378,8.90434-3.30378,16.43239,0,7.52974,1.08069,12.90518,3.30378,16.43336,2.28507,3.62765,5.51368,5.46703,9.59613,5.46703M32.4165,1.7002c-5.86719,0-11.10009,1.41699-15.7002,4.25-4.5996,2.83398-8.21679,6.98437-10.8496,12.45019-2.63476,5.4668-3.9502,12-3.9502,19.59961s1.31544,14.13477,3.9502,19.59961c2.63281,5.46778,6.25,9.61719,10.8496,12.45019,4.60011,2.83497,9.83301,4.25,15.7002,4.25,5.86572,0,11.11572-1.41503,15.75-4.25,4.63281-2.833,8.25-6.98241,10.85009-12.45019,2.59913-5.46484,3.89991-12,3.89991-19.59961s-1.30078-14.13281-3.89991-19.59961c-2.60009-5.46582-6.21728-9.61621-10.85009-12.45019-4.63428-2.83301-9.88428-4.25-15.75-4.25h0ZM32.4165,58.90039c-3.73438,0-6.64991-1.66602-8.75-5-2.10009-3.333-3.14991-8.63281-3.14991-15.90039,0-7.26562,1.04981-12.56543,3.14991-15.89941,2.10009-3.33301,5.01562-5,8.75-5,3.73291,0,6.66553,1.66699,8.7998,5,2.13281,3.33398,3.2002,8.63379,3.2002,15.89941,0,7.26758-1.06739,12.56739-3.2002,15.90039-2.13427,3.33398-5.06689,5-8.7998,5h0Z"/>
  </g>
  <g>
    <polygon class="st0" points="80.2832 72.5 80.2832 17.10059 66.88281 17.10059 66.88281 3.5 97.58398 3.5 97.58398 72.5 80.2832 72.5"/>
    <path d="M97.0835,4v68h-16.30079V16.60059h-13.39941V4h29.7002M98.0835,3h-31.7002v14.60059h13.39941v55.39941h18.30079V3h0Z"/>
  </g>
</svg>